  <svg width="827" height="847" viewBox="0 0 827 847" fill="none" xmlns="http://www.w3.org/2000/svg">
        <g id="v3">
        <g id="digestive-system">
        <mask id="mask0_286_2" style="mask-type:alpha" maskUnits="userSpaceOnUse" x="-1" y="-6" width="409" height="853">
        <path id="Vector 9" d="M-0.00585938 846L7.00009 -5H407V113.922H240.496V273.584L239.502 846H-0.00585938Z" fill="white" stroke="black"/>
        </mask>
        <g mask="url(#mask0_286_2)">
        <g id="Vector" filter="url(#filter0_i_286_2)">
        <path d="M335.386 63.5C347.754 44.3 328.821 -2.66667 325.386 -12L407.22 -10.5C407.22 -1.33333 419.478 62 413.978 85C408.828 106.534 390.978 110 344.478 110C299.554 110 271.478 109.5 211.693 105.5C188.96 103.979 164.714 97.0247 148.978 113.5C133.378 129.832 148.939 172.5 148.939 172.5C148.939 172.5 199.121 157.948 214.693 178.5C222.519 188.829 223.478 210.5 223.478 210.5C223.478 210.5 226.684 229.407 226.684 258.5C226.684 270 227.049 307.462 211.693 320C194.522 334.019 175.265 312.156 154.939 321C140 327.5 137.521 352 152.123 352C166.724 352 193.079 353.2 213.693 358C234.306 362.8 225.374 386 218.331 397C224.547 407.833 227.014 442.782 223.331 460C220.978 471 219.997 468.635 223.331 492.5C226.684 516.5 226.74 536.962 226.684 565.5C226.63 592.868 244.501 618.155 223.331 635.5C206.039 649.668 198.114 640.939 167.212 646C155 648 149.543 658.543 150.5 659.5C151.457 660.457 146.794 659.5 150.5 659.5C167.234 677.5 148.478 691.5 148.478 691.5C146.978 691.5 158.712 694.5 158.712 710.5C158.712 723.061 146.244 729.5 148.478 728.5C148.478 728.5 158.712 731.863 158.712 746.5C158.712 758.5 148.478 760.5 148.478 762C148.478 763.5 158.712 766.794 158.712 779C158.712 791.206 148.478 794 148.478 794C148.478 794 159.212 797 159.212 809.5C157.712 824.5 148.478 824.5 148.478 824.5C146.212 824.5 161 830 157.5 839C146.649 866.903 153.75 833 163.895 927.5C174.04 1022 112.693 914.108 96.8959 911C71.2659 905.957 87.2023 878.448 90 839C90 825 95.4778 825.5 95.4778 824.5C95.4778 824.5 85.4778 820.946 85.4778 809.5C85.4778 798.054 95.4778 794 95.4778 794C95.4778 794 85.4778 787.898 85.4778 779C85.4778 763.5 95.4778 762 95.4778 762C95.4778 762 85.4778 758 85.4778 745C85.4778 733 95.4778 728.5 95.4778 728.5C95.4778 728.5 85.4778 721 85.4778 710.5C85.4778 697 95.4778 692.5 95.4778 692.5C95.4778 692.5 88.7119 688 88.7119 674.5C90.2119 662 95.4778 660 95.4778 660C95.4778 660 91.2119 650.5 79.2119 646C67.2119 641.5 43.9776 647 24.8077 644C5.6377 641 7.97777 597 10.4778 584C13.2921 569.365 17.0635 563.897 17.4776 549C18.3563 517.389 7.31633 507.808 10.4778 472.5C12.5981 448.82 19.664 433.623 17.5647 411C16.7756 402.496 13.6886 398.039 13.5647 389.5C13.3874 377.27 13.5689 368.947 20.6874 359C34.4983 339.702 44.1204 350 81.0491 352C117.978 354 100.441 321 87.8959 320C64.8466 318.163 45.408 335.971 28.6874 320C18.6493 310.412 18.0973 292.121 15.4779 279C10.9948 256.544 14.4779 220.5 14.4779 220.5L17.4779 203C17.4779 203 23.0066 184.115 31.4176 175.5C50.2825 156.177 100.441 171.31 100.441 171.31C100.441 171.31 96.2901 155.88 98.8959 123C100.441 103.5 106.601 88.9456 117.478 80.9678C148.978 58.5 196.66 71.2534 220.478 71C267.478 70.5 319.926 87.5 335.386 63.5Z" fill="url(#paint0_radial_286_2)"/>
        <path d="M211 389H258V424H211V389Z" fill="url(#paint1_radial_286_2)"/>
        </g>
        </g>
        </g>
        <g id="mitochondria">
        <mask id="mask1_286_2" style="mask-type:alpha" maskUnits="userSpaceOnUse" x="593" y="387" width="228" height="281">
        <path id="Vector 11" d="M593.5 667V388H813L819.5 667H593.5Z" fill="#D9D9D9" stroke="black"/>
        </mask>
        <g mask="url(#mask1_286_2)">
        <g id="Vector_2" filter="url(#filter1_i_286_2)">
        <path d="M575.5 406.39L612.477 407.311L611.501 446.513L574.524 445.592L575.5 406.39Z" fill="url(#paint2_radial_286_2)"/>
        <path d="M796.772 409.133C783.807 380.885 742.509 400.252 707.411 399.133C693.33 398.683 685.402 398.324 671.337 399.133C646.633 400.553 631 384 608.767 409.133C598.604 420.62 603.086 420.133 610.129 431.133C609.505 436.677 610.129 456.633 610.129 456.633C610.129 456.633 607.275 487.873 606.5 508C605.146 543.168 611.596 562.81 612.129 598C612.351 612.695 603.55 626.491 610.129 639.632C622.035 663.414 650.791 651.008 677.337 652.633C693.407 653.616 702.464 652.633 718.564 652.633C745.412 652.633 764.894 661.405 787.312 646.633C800.013 638.264 807.033 630.661 811.533 616.133C816.473 600.184 807.58 571.304 806.895 542.5C806.478 524.983 802.257 526.765 806.895 497.633C811.533 468.5 802.293 470.644 802.772 453C803.076 441.81 806.318 435.562 803.895 424.633C802.453 418.129 799.701 415.514 796.772 409.133Z" fill="url(#paint3_radial_286_2)"/>
        </g>
        </g>
        </g>
        <g id="gulucose-storage">
        <mask id="mask2_286_2" style="mask-type:alpha" maskUnits="userSpaceOnUse" x="243" y="514" width="349" height="150">
        <path id="Vector 10" d="M243.5 515V655.5V663.5H591V517L243.5 515Z" fill="#D9D9D9" stroke="black"/>
        </mask>
        <g mask="url(#mask2_286_2)">
        <g id="Vector_3" filter="url(#filter2_i_286_2)">
        <path d="M392.658 549.321L393.365 497.28L427.058 497.738L426.351 549.779L392.658 549.321Z" fill="url(#paint4_radial_286_2)"/>
        <path d="M270.847 650.593C250.3 642.977 243.92 607.787 252 588.74C260.08 569.692 255.678 573.205 258.5 564.5C260.966 556.893 262.36 553.712 266.093 547.453C291.574 504.733 343.265 531.07 392.941 528.5C407.956 527.723 430.5 524.874 430.5 524.874C430.5 524.874 475.755 523.21 498.302 524.874C525.568 526.886 549.44 514.974 567.5 535.5C575.3 544.366 576.697 558.477 580.398 572.85C582.01 579.106 584.024 582.354 585 588.74C587.841 607.335 581.325 622.886 573.729 635.573C566.855 647.052 556.342 648.793 543.5 652.55C524.126 658.22 512.327 649.642 492.29 649.094C458.718 648.177 430.94 653.055 397.359 652.523C368.504 652.067 352.401 645.81 323.613 647.821C309.787 648.787 288.439 652.55 288.439 652.55C288.439 652.55 277.329 652.996 270.847 650.593Z" fill="url(#paint5_radial_286_2)"/>
        </g>
        </g>
        </g>
        <g id="heart">
        <mask id="mask3_286_2" style="mask-type:alpha" maskUnits="userSpaceOnUse" x="239" y="123" width="354" height="393">
        <rect id="Rectangle 4216" x="239" y="123" width="354" height="393" fill="#D9D9D9"/>
        </mask>
        <g mask="url(#mask3_286_2)">
        <g id="Vector_4" filter="url(#filter3_i_286_2)">
        <path d="M577.787 336.916C578.805 391.352 591.663 447.615 566.346 476.237C536.558 509.914 474.904 497.978 415.219 499.249C360.412 500.417 304.088 510.435 275.516 485.536C241.368 455.777 253.494 393.97 252.651 336.916C251.829 281.316 239.393 239.255 267.068 210.149C296.69 178.995 356.346 193.959 415.219 194.582C471.891 195.181 530.155 181.255 559.506 210.149C589.412 239.588 576.729 280.371 577.787 336.916ZM282.856 336.916C283 384.211 274.79 431.995 301.786 456.536C325.656 478.235 370.558 471.043 415.219 471.085C463.06 471.13 512.095 480.786 536.614 454.627C559.095 430.642 549.582 336.916 549.582 336.916C549.582 336.916 549.582 250.685 532.874 234.234C508.398 208.556 461.384 222.433 415.219 222.746C368.193 223.065 320.04 210.629 295.564 236.307C272.623 260.376 282.735 297.314 282.856 336.916Z" fill="url(#paint6_radial_286_2)"/>
        <path d="M297.428 197.909L366.009 187.569C371.72 180.27 392.612 166.33 390.246 160.715C387.88 155.101 383.998 146.677 382.352 143.167L396.901 135.255C400.344 144.61 407.933 162.823 410.745 160.84C414.261 158.361 417.922 131.883 414.425 131.362C411.627 130.945 424.259 131.255 430.924 131.462C428.881 138.616 425.391 153.429 427.779 155.443C430.763 157.961 442.376 139.532 442.4 135.532C442.419 132.332 450.382 138.58 454.857 142.608C451.331 146.92 444.472 156.645 445.245 161.05C446.211 166.556 454.678 172.107 454.623 181.107L455.614 182.613C457.725 189.752 461.733 189.958 460.969 193.585C474.966 192.999 501.737 191.552 504.455 193.91C507.24 196.327 507.541 215.251 506.343 220.41C497.683 219.191 478.253 225.651 477.807 233.249C477.36 240.846 478.285 236.752 478.804 233.755C488.642 232.981 508.815 231.937 510.803 233.949C512.791 235.962 514.227 246.47 514.697 251.473L486.197 251.3C504.547 276.079 533.926 344.982 494.452 372.907C482.595 381.295 479.262 382.691 468.458 386.5C435.044 398.281 405 392.5 378.352 375.907C351.705 359.315 336.986 334.259 332.399 299.866C328.749 272.496 342.184 234.393 345.821 230.446C349.458 226.5 331.958 221 330.913 221.386C329.867 221.772 296.428 217.719 296.428 217.719L294.732 215.909L297.428 197.909Z" fill="url(#paint7_radial_286_2)"/>
        <path d="M393 495.999H427V542.999H393V495.999Z" fill="url(#paint8_radial_286_2)"/>
        <path d="M210 388.999H258V423.999H210V388.999Z" fill="url(#paint9_radial_286_2)"/>
        <path d="M568 406.999H601L599 445.999H568V406.999Z" fill="url(#paint10_radial_286_2)"/>
        <path d="M570 275H595V314H570V275Z" fill="url(#paint11_radial_286_2)"/>
        </g>
        </g>
        </g>
        <g id="lung">
        <mask id="mask4_286_2" style="mask-type:alpha" maskUnits="userSpaceOnUse" x="406" y="-38" width="421" height="427">
        <g id="Vector_5">
        <path d="M590.06 -31.8561H827V389H590.06V-31.8561Z" fill="#D9D9D9"/>
        <path d="M406 -38H660.227V147.341H406V-38Z" fill="#D9D9D9"/>
        </g>
        </mask>
        <g mask="url(#mask4_286_2)">
        <g id="Vector_6" filter="url(#filter4_i_286_2)">
        <path d="M486.834 67.5C474.466 48.3 481.398 4.33333 484.834 -5L383 -3.5C383 5.66667 389.645 59.2435 392.742 83C396 108 457.705 115 475.742 115C520.576 112.167 608.527 112.5 608.527 112.5C608.527 112.5 654.841 106.76 669.5 114.763C690.743 126.36 683.664 157.497 680.281 179.5H715.324C715.324 179.5 733.753 185.2 719.324 130C713.949 109.439 714.867 95.2722 702.5 87.0176C673.366 67.5714 593.742 77 593.742 77C593.742 77 502.294 91.5 486.834 67.5Z" fill="url(#paint12_radial_286_2)"/>
        <path d="M713.943 145.356C734.886 148.355 786.646 185.992 801 235.856C812.807 276.872 822.079 322.625 789.158 349.79C772.041 363.914 739 371 739 371C739 371 690.962 377.263 665.223 364.033C638.486 350.29 633.094 341.736 615.643 305.146C608.663 290.512 613 299.356 608.5 289.856C604 280.356 609.643 241.717 609.643 241.717C609.643 241.717 619.662 159.784 659.5 145.356C679.491 138.116 693 142.356 713.943 145.356Z" fill="url(#paint13_radial_286_2)"/>
        <path d="M578 275H618L624 314H578V275Z" fill="url(#paint14_radial_286_2)"/>
        </g>
        </g>
        </g>
        </g>
        <defs>
        <filter id="filter0_i_286_2" x="8.82178" y="-12" width="406.575" height="978.201" filterUnits="userSpaceOnUse" color-interpolation-filters="sRGB">
        <feFlood flood-opacity="0" result="BackgroundImageFix"/>
        <feBlend mode="normal" in="SourceGraphic" in2="BackgroundImageFix" result="shape"/>
        <feColorMatrix in="SourceAlpha" type="matrix" values="0 0 0 0 0 0 0 0 0 0 0 0 0 0 0 0 0 0 127 0" result="hardAlpha"/>
        <feOffset/>
        <feGaussianBlur stdDeviation="3.95"/>
        <feComposite in2="hardAlpha" operator="arithmetic" k2="-1" k3="1"/>
        <feColorMatrix type="matrix" values="0 0 0 0 0 0 0 0 0 0 0 0 0 0 0 0 0 0 0.59 0"/>
        <feBlend mode="normal" in2="shape" result="effect1_innerShadow_286_2"/>
        </filter>
        <filter id="filter1_i_286_2" x="574.524" y="393.69" width="238.496" height="261.528" filterUnits="userSpaceOnUse" color-interpolation-filters="sRGB">
        <feFlood flood-opacity="0" result="BackgroundImageFix"/>
        <feBlend mode="normal" in="SourceGraphic" in2="BackgroundImageFix" result="shape"/>
        <feColorMatrix in="SourceAlpha" type="matrix" values="0 0 0 0 0 0 0 0 0 0 0 0 0 0 0 0 0 0 127 0" result="hardAlpha"/>
        <feOffset/>
        <feGaussianBlur stdDeviation="5.3"/>
        <feComposite in2="hardAlpha" operator="arithmetic" k2="-1" k3="1"/>
        <feColorMatrix type="matrix" values="0 0 0 0 0 0 0 0 0 0 0 0 0 0 0 0 0 0 0.59 0"/>
        <feBlend mode="normal" in2="shape" result="effect1_innerShadow_286_2"/>
        </filter>
        <filter id="filter2_i_286_2" x="248.607" y="497.28" width="337.072" height="157.199" filterUnits="userSpaceOnUse" color-interpolation-filters="sRGB">
        <feFlood flood-opacity="0" result="BackgroundImageFix"/>
        <feBlend mode="normal" in="SourceGraphic" in2="BackgroundImageFix" result="shape"/>
        <feColorMatrix in="SourceAlpha" type="matrix" values="0 0 0 0 0 0 0 0 0 0 0 0 0 0 0 0 0 0 127 0" result="hardAlpha"/>
        <feOffset/>
        <feGaussianBlur stdDeviation="5.3"/>
        <feComposite in2="hardAlpha" operator="arithmetic" k2="-1" k3="1"/>
        <feColorMatrix type="matrix" values="0 0 0 0 0 0 0 0 0 0 0 0 0 0 0 0 0 0 0.59 0"/>
        <feBlend mode="normal" in2="shape" result="effect1_innerShadow_286_2"/>
        </filter>
        <filter id="filter3_i_286_2" x="210" y="131.155" width="391" height="411.844" filterUnits="userSpaceOnUse" color-interpolation-filters="sRGB">
        <feFlood flood-opacity="0" result="BackgroundImageFix"/>
        <feBlend mode="normal" in="SourceGraphic" in2="BackgroundImageFix" result="shape"/>
        <feColorMatrix in="SourceAlpha" type="matrix" values="0 0 0 0 0 0 0 0 0 0 0 0 0 0 0 0 0 0 127 0" result="hardAlpha"/>
        <feOffset/>
        <feGaussianBlur stdDeviation="5.3"/>
        <feComposite in2="hardAlpha" operator="arithmetic" k2="-1" k3="1"/>
        <feColorMatrix type="matrix" values="0 0 0 0 0 0 0 0 0 0 0 0 0 0 0 0 0 0 0.59 0"/>
        <feBlend mode="normal" in2="shape" result="effect1_innerShadow_286_2"/>
        </filter>
        <filter id="filter4_i_286_2" x="383" y="-5" width="428.866" height="377.481" filterUnits="userSpaceOnUse" color-interpolation-filters="sRGB">
        <feFlood flood-opacity="0" result="BackgroundImageFix"/>
        <feBlend mode="normal" in="SourceGraphic" in2="BackgroundImageFix" result="shape"/>
        <feColorMatrix in="SourceAlpha" type="matrix" values="0 0 0 0 0 0 0 0 0 0 0 0 0 0 0 0 0 0 127 0" result="hardAlpha"/>
        <feOffset/>
        <feGaussianBlur stdDeviation="5.3"/>
        <feComposite in2="hardAlpha" operator="arithmetic" k2="-1" k3="1"/>
        <feColorMatrix type="matrix" values="0 0 0 0 0 0 0 0 0 0 0 0 0 0 0 0 0 0 0.59 0"/>
        <feBlend mode="normal" in2="shape" result="effect1_innerShadow_286_2"/>
        </filter>
        <radialGradient id="paint0_radial_286_2" cx="0" cy="0" r="1" gradientUnits="userSpaceOnUse" gradientTransform="translate(119.715 423.5) rotate(111.452) scale(228.317 127.297)">
        <stop offset="0.247155" stop-color="#FFE2E2"/>
        <stop offset="1" stop-color="#FFACAC"/>
        </radialGradient>
        <radialGradient id="paint1_radial_286_2" cx="0" cy="0" r="1" gradientUnits="userSpaceOnUse" gradientTransform="translate(119.715 423.5) rotate(111.452) scale(228.317 127.297)">
        <stop offset="0.247155" stop-color="#FFE2E2"/>
        <stop offset="1" stop-color="#FFACAC"/>
        </radialGradient>
        <radialGradient id="paint2_radial_286_2" cx="0" cy="0" r="1" gradientUnits="userSpaceOnUse" gradientTransform="translate(676.621 501) rotate(85.8007) scale(116.814 177.867)">
        <stop stop-color="#FEF85A"/>
        <stop offset="1" stop-color="#E7CC3D"/>
        </radialGradient>
        <radialGradient id="paint3_radial_286_2" cx="0" cy="0" r="1" gradientUnits="userSpaceOnUse" gradientTransform="translate(676.621 501) rotate(85.8007) scale(116.814 177.867)">
        <stop stop-color="#FEF85A"/>
        <stop offset="1" stop-color="#E7CC3D"/>
        </radialGradient>
        <radialGradient id="paint4_radial_286_2" cx="0" cy="0" r="1" gradientUnits="userSpaceOnUse" gradientTransform="translate(400 589.5) rotate(-17.0272) scale(83.6675 75.4995)">
        <stop offset="0.309085" stop-color="#FBB584"/>
        <stop offset="1" stop-color="#FF8A35"/>
        </radialGradient>
        <radialGradient id="paint5_radial_286_2" cx="0" cy="0" r="1" gradientUnits="userSpaceOnUse" gradientTransform="translate(400 589.5) rotate(-17.0272) scale(83.6675 75.4995)">
        <stop offset="0.309085" stop-color="#FBB584"/>
        <stop offset="1" stop-color="#FF8A35"/>
        </radialGradient>
        <radialGradient id="paint6_radial_286_2" cx="0" cy="0" r="1" gradientUnits="userSpaceOnUse" gradientTransform="translate(411.715 311.372) rotate(157.581) scale(212.637 246.316)">
        <stop stop-color="#FA8383"/>
        <stop offset="1" stop-color="#E83333"/>
        </radialGradient>
        <radialGradient id="paint7_radial_286_2" cx="0" cy="0" r="1" gradientUnits="userSpaceOnUse" gradientTransform="translate(411.715 311.372) rotate(157.581) scale(212.637 246.316)">
        <stop stop-color="#FA8383"/>
        <stop offset="1" stop-color="#E83333"/>
        </radialGradient>
        <radialGradient id="paint8_radial_286_2" cx="0" cy="0" r="1" gradientUnits="userSpaceOnUse" gradientTransform="translate(411.715 311.372) rotate(157.581) scale(212.637 246.316)">
        <stop stop-color="#FA8383"/>
        <stop offset="1" stop-color="#E83333"/>
        </radialGradient>
        <radialGradient id="paint9_radial_286_2" cx="0" cy="0" r="1" gradientUnits="userSpaceOnUse" gradientTransform="translate(411.715 311.372) rotate(157.581) scale(212.637 246.316)">
        <stop stop-color="#FA8383"/>
        <stop offset="1" stop-color="#E83333"/>
        </radialGradient>
        <radialGradient id="paint10_radial_286_2" cx="0" cy="0" r="1" gradientUnits="userSpaceOnUse" gradientTransform="translate(411.715 311.372) rotate(157.581) scale(212.637 246.316)">
        <stop stop-color="#FA8383"/>
        <stop offset="1" stop-color="#E83333"/>
        </radialGradient>
        <radialGradient id="paint11_radial_286_2" cx="0" cy="0" r="1" gradientUnits="userSpaceOnUse" gradientTransform="translate(411.715 311.372) rotate(157.581) scale(212.637 246.316)">
        <stop stop-color="#FA8383"/>
        <stop offset="1" stop-color="#E83333"/>
        </radialGradient>
        <radialGradient id="paint12_radial_286_2" cx="0" cy="0" r="1" gradientUnits="userSpaceOnUse" gradientTransform="translate(702 255) rotate(110.556) scale(98.256 114.142)">
        <stop offset="0.339516" stop-color="#8CC9FF"/>
        <stop offset="1" stop-color="#48A9FF"/>
        </radialGradient>
        <radialGradient id="paint13_radial_286_2" cx="0" cy="0" r="1" gradientUnits="userSpaceOnUse" gradientTransform="translate(702 255) rotate(110.556) scale(98.256 114.142)">
        <stop offset="0.339516" stop-color="#8CC9FF"/>
        <stop offset="1" stop-color="#48A9FF"/>
        </radialGradient>
        <radialGradient id="paint14_radial_286_2" cx="0" cy="0" r="1" gradientUnits="userSpaceOnUse" gradientTransform="translate(702 255) rotate(110.556) scale(98.256 114.142)">
        <stop offset="0.339516" stop-color="#8CC9FF"/>
        <stop offset="1" stop-color="#48A9FF"/>
        </radialGradient>
        </defs>
        </svg>