<svg width="794" height="824" viewBox="0 0 794 824" fill="none" xmlns="http://www.w3.org/2000/svg">
<path d="M199.887 394.631H246.622V428.433H199.887V394.631Z" fill="#3A3A3A"/>
<path d="M379.945 553.017L380.647 501.279L414.725 501.742L414.022 553.48L379.945 553.017Z" fill="#3A3A3A"/>
<path d="M560.754 280.3L604.533 281.391L603.594 319.073L559.815 317.983L560.754 280.3Z" fill="#3A3A3A"/>
<path d="M554.788 411.732L591.556 412.647L590.645 449.232L553.876 448.317L554.788 411.732Z" fill="#3A3A3A"/>
<path d="M349.11 85.4412C361.409 66.353 353.856 -0.720994 350.44 -10L395.021 -2.54366C395.021 6.56966 403.94 80.3709 399.84 103.834C395.741 127.296 352.356 125.871 331.175 122.226C286.594 119.409 246.127 109.111 191.796 113.775C169.224 115.713 150.052 105.846 134.404 122.226C118.893 138.462 128.255 179.391 128.255 179.391C146.873 179.391 198.117 160.173 203.581 189.333C205.935 201.894 200.863 213.193 195.91 221.147C223.581 235.065 187.184 245.007 208.193 264.891C225.001 280.797 208.145 305.321 199.604 313.108C191.064 320.896 134.221 314.102 134.221 314.102L132.415 357.846C146.934 357.846 181.096 359.039 201.593 363.811C222.09 368.583 213.208 391.648 206.205 402.584C212.385 413.355 222.032 436.884 211.176 444.837C205.369 454.282 197.238 478.043 211.176 497.529C228.599 521.886 189.655 571.098 211.176 582.034C228.394 590.783 218.35 626.44 211.176 639.696C204.002 652.952 134.404 641.684 134.404 641.684V844H93.4103V641.684C93.4103 641.684 58.8907 656.526 41.2882 646.158C38.6897 644.628 37.3515 643.565 34.9939 641.684C21.4429 630.875 30.1771 615.14 10.9097 604.403C-13.1745 590.981 34.9939 570.601 15.5216 562.15C-3.95068 553.7 20.3471 492.558 8.56117 466.709C-3.22477 440.86 33.0052 411.035 25.3189 408.549C19.1698 406.561 11.9164 402.419 10.5499 394.134C10.5499 376.736 23.7816 389.66 17.6323 363.811C11.4831 337.963 67.6791 349.064 96.5457 357.846L95.399 318.079C78.8305 317.085 37.3864 340.993 20.6154 317.085C11.3721 303.908 33.9996 287.26 14.5273 276.324C-4.94503 265.388 33.9996 251.469 18.6267 235.065C3.25381 218.661 46.2368 210.211 35.9883 210.211C25.7398 210.211 26.963 194.808 28.3019 184.362C31.0051 163.273 74.4784 173.9 88.8433 178.012C86.3677 174.322 85.2653 163.321 93.4103 132.168C111.345 63.5693 183.085 92.4005 214.855 85.4412C246.625 78.482 333.738 109.302 349.11 85.4412Z" fill="#3A3A3A"/>
<path d="M777.379 396.751C783.528 370.902 727.332 382.004 698.466 390.786H662.596C648.077 390.786 613.916 391.979 593.419 396.751C572.922 401.523 581.804 424.588 588.807 435.524C588.186 441.036 587.318 453.823 588.807 460.876C594.614 470.32 602.745 494.081 588.807 513.567C571.384 537.924 610.329 577.195 588.807 588.13C571.589 596.879 581.633 625.578 588.807 638.834C595.981 652.089 662.596 649.77 662.596 649.77H762.006C762.006 644.136 766.823 630.184 786.09 619.447C810.174 606.026 762.006 585.645 781.478 577.195C800.951 568.744 769.692 527.486 781.478 501.637C793.264 475.788 762.006 443.975 769.692 441.489C775.842 439.501 781.415 425.775 781.478 414.149C781.517 407.169 771.23 422.6 777.379 396.751Z" fill="#3A3A3A"/>
<path d="M259.396 651.719C234.24 658.877 243.372 620.083 251.407 601.147L250.485 578.052C250.112 568.703 250.426 571.515 254.669 558.127C258.911 544.739 369.693 542.579 380.802 546.652C380.802 546.652 383.667 537.05 419.054 545.126C454.441 553.203 476.618 550.592 476.618 550.592C476.618 550.592 522.806 546.468 536.238 550.558L549.064 572.778L550.117 599.173C550.117 599.173 559.171 624.173 551.618 636.786C544.783 648.199 532.169 640.668 521.934 653.502C509.139 669.544 478.584 637.354 470.64 650.229C462.695 663.103 410.723 645.019 385.193 653.638C359.664 662.257 340.489 646.964 311.864 648.963C298.116 649.923 290.664 654.073 276.889 653.665C270.018 653.461 278.938 646.158 259.396 651.719Z" fill="#3A3A3A"/>
<path d="M568.294 326.033C568.294 373.49 572.908 437.208 543.933 470.686C514.912 504.216 452.264 507.47 404.724 507.47C357.184 507.47 294.164 513.164 263.029 479.633C231.942 446.155 232.701 373.49 232.701 326.033C232.701 231.043 309.718 154.04 404.724 154.04C499.729 154.04 568.294 231.043 568.294 326.033ZM269.989 361.326C269.989 444.801 321.234 460.744 404.724 460.744C488.213 460.744 535.481 435.356 535.481 351.881C535.481 268.406 451.458 381.707 409.198 382.204C366.938 382.701 269.989 277.851 269.989 361.326Z" fill="#3A3A3A"/>
<path d="M405.52 344.153C402.63 345.178 397.869 345.178 394.978 344.153C370.323 335.693 315.232 300.4 315.232 240.582C315.232 214.176 336.401 192.813 362.501 192.813C377.975 192.813 391.662 200.333 400.249 211.954C408.836 200.333 422.609 192.813 437.997 192.813C464.097 192.813 485.266 214.176 485.266 240.582C485.266 300.4 430.175 335.693 405.52 344.153Z" fill="#3A3A3A"/>
<path d="M565.809 92.4005C586.251 111.29 553.937 197.946 588.281 205.788C588.281 205.788 602.877 161.44 621.767 158.639C630.066 156.149 657.828 156.118 702.475 175.911C723.368 186.96 768.245 220.914 780.609 266.476C783.745 278.034 785.622 284.93 786.592 288.472C786.568 288.326 786.544 288.179 786.52 288.033C785.213 283.133 782.735 273.911 780.609 266.009C782.801 271.557 785.073 279.275 786.52 288.033C787.576 291.992 787.867 293.13 786.592 288.472C789.964 309.372 788.588 336.042 770.305 353.307C767.165 356.272 748.769 365.892 736.82 362.643C716.786 357.197 662.98 349.572 662.98 349.572C662.98 349.572 611.145 341.323 603.736 324.83C597.131 310.126 601.108 319.073 596.634 309.629C592.159 300.184 594.806 311.759 589.998 261.341C589.14 251.226 585.705 230.344 578.836 227.729C577.927 227.383 577.198 227.11 576.624 226.898C577.085 227.184 577.537 227.462 577.978 227.729C575.743 226.784 572.862 225.511 576.624 226.898C559.11 216.027 527.408 191.922 530.754 175.911C534.189 159.479 539.504 156.028 544.927 144.098C550.351 132.168 547.91 118.249 528.023 111.787C508.136 105.325 513.329 111.06 470.102 110.793C426.876 110.526 412.209 99.2363 409.447 51.8877L406.712 -6.02328H455.436C455.436 -6.02328 439.526 66.5518 455.436 72.5169C471.345 78.482 545.366 73.5111 565.809 92.4005Z" fill="#3A3A3A"/>
<rect x="197" y="390" width="47" height="34" fill="url(#paint0_linear_215_146)"/>
<rect x="378.08" y="549.313" width="52.0455" height="34.2744" transform="rotate(-89.2217 378.08 549.313)" fill="url(#paint1_linear_215_146)"/>
<rect x="559.917" y="275" width="44.0412" height="37.9152" transform="rotate(1.42673 559.917 275)" fill="url(#paint2_linear_215_146)"/>
<rect x="559.917" y="275" width="44.0412" height="37.9152" transform="rotate(1.42673 559.917 275)" fill="url(#paint3_linear_215_146)"/>
<rect x="553.917" y="407.201" width="36.9885" height="36.8106" transform="rotate(1.42673 553.917 407.201)" fill="url(#paint4_linear_215_146)"/>
<rect x="553.917" y="407.201" width="36.9885" height="36.8106" transform="rotate(1.42673 553.917 407.201)" fill="url(#paint5_linear_215_146)"/>
<path d="M347.071 79C359.439 59.8 351.844 -7.66667 348.408 -17L393.242 -9.5C393.242 -0.333332 402.212 73.9 398.089 97.5C393.966 121.1 350.334 119.667 329.034 116C284.2 113.167 243.502 102.809 188.863 107.5C166.163 109.449 146.881 99.5247 131.145 116C115.545 132.332 124.961 173.5 124.961 173.5C143.685 173.5 195.22 154.17 200.715 183.5C203.082 196.135 197.982 207.5 193 215.5C220.828 229.5 184.224 239.5 205.353 259.5C222.256 275.5 205.304 300.167 196.715 308C188.126 315.833 130.961 309 130.961 309L129.145 353C143.746 353 178.102 354.2 198.715 359C219.329 363.8 210.396 387 203.353 398C209.569 408.833 219.271 432.5 208.353 440.5C202.513 450 194.336 473.9 208.353 493.5C225.875 518 186.709 567.5 208.353 578.5C225.669 587.3 215.568 623.167 208.353 636.5C201.139 649.833 131.145 638.5 131.145 638.5V842H89.9182V638.5C89.9182 638.5 55.2025 653.429 37.5 643C34.8867 641.461 33.5409 640.392 31.17 638.5C17.542 627.627 26.3258 611.8 6.94898 601C-17.272 587.5 31.17 567 11.5871 558.5C-7.99584 550 16.44 488.5 4.58708 462.5C-7.26581 436.5 29.17 406.5 21.44 404C15.2559 402 7.96136 397.833 6.58708 389.5C6.58708 372 19.8939 385 13.7098 359C7.52564 333 64.0408 344.167 93.0714 353L91.9182 313C75.2556 312 33.576 336.048 16.7098 312C7.41398 298.746 30.17 282 10.5871 271C-8.99584 260 30.17 246 14.7098 229.5C-0.750431 213 42.4767 204.5 32.17 204.5C21.8633 204.5 23.0934 189.007 24.44 178.5C27.1585 157.287 70.8787 167.977 85.3252 172.113C82.8356 168.401 81.727 157.336 89.9182 126C107.955 57 180.102 86 212.053 79C244.004 72 331.611 103 347.071 79Z" fill="url(#paint6_radial_215_146)"/>
<path d="M777.772 392.132C783.956 366.132 727.441 377.299 698.411 386.132H662.337C647.736 386.132 613.38 387.332 592.767 392.132C572.153 396.932 581.086 420.132 588.129 431.132C587.505 436.677 586.632 449.538 588.129 456.632C593.969 466.132 602.146 490.032 588.129 509.632C570.607 534.132 609.773 573.632 588.129 584.632C570.813 593.432 580.914 622.299 588.129 635.632C595.343 648.966 662.337 646.632 662.337 646.632H703.564H762.312C762.312 640.966 767.156 626.932 786.533 616.132C810.754 602.632 762.312 582.132 781.895 573.632C801.478 565.132 770.042 523.632 781.895 497.632C793.748 471.632 762.312 439.632 770.042 437.132C776.226 435.132 781.831 421.327 781.895 409.632C781.933 402.611 771.588 418.132 777.772 392.132Z" fill="url(#paint7_radial_215_146)"/>
<path d="M256.847 648.593C231.548 655.793 240.732 616.772 248.812 597.725L247.885 574.494C247.51 565.092 247.826 567.919 252.093 554.453C256.359 540.987 367.77 538.815 378.943 542.911C378.943 542.911 381.824 533.253 417.412 541.376C453 549.5 475.302 546.874 475.302 546.874C475.302 546.874 521.753 542.726 535.261 546.84L548.16 569.191L549.219 595.74C549.219 595.74 558.325 620.886 550.729 633.572C543.855 645.052 531.169 637.477 520.876 650.386C508.009 666.523 477.28 634.144 469.29 647.094C461.3 660.044 409.033 641.854 383.359 650.523C357.684 659.193 338.401 643.81 309.613 645.821C295.786 646.787 288.293 650.961 274.439 650.55C267.529 650.346 276.5 643 256.847 648.593Z" fill="url(#paint8_radial_215_146)"/>
<path d="M567.5 321C567.5 368.735 572.14 432.826 543 466.5C513.814 500.227 450.81 503.5 403 503.5C355.19 503.5 291.813 509.227 260.5 475.5C229.237 441.826 230 368.735 230 321C230 225.455 307.455 148 403 148C498.545 148 567.5 225.455 567.5 321ZM267.5 356.5C267.5 440.464 319.036 456.5 403 456.5C486.964 456.5 534.5 430.964 534.5 347C534.5 263.036 450 377 407.5 377.5C365 378 267.5 272.536 267.5 356.5Z" fill="url(#paint9_radial_215_146)"/>
<path d="M403.801 339.226C400.894 340.258 396.106 340.258 393.199 339.226C368.404 330.717 313 295.218 313 235.049C313 208.489 334.289 187 360.538 187C376.099 187 389.864 194.564 398.5 206.254C407.135 194.564 420.986 187 436.462 187C462.71 187 484 208.489 484 235.049C484 295.218 428.596 330.717 403.801 339.226Z" fill="#C33C3A" stroke="#FF9391" stroke-width="1.5" stroke-linecap="round" stroke-linejoin="round"/>
<path d="M565 86C585.559 105 553.061 192.163 587.6 200.052C587.6 200.052 602.279 155.443 621.276 152.626C629.623 150.122 657.542 150.09 702.443 170C723.455 181.113 768.586 215.266 781.02 261.095C784.174 272.721 786.062 279.657 787.037 283.22C787.013 283.072 786.989 282.925 786.965 282.778C785.651 277.849 783.159 268.573 781.02 260.625C783.225 266.206 785.51 273.969 786.965 282.778C788.027 286.76 788.32 287.905 787.037 283.22C790.429 304.242 789.044 331.068 770.658 348.434C767.5 351.417 749 361.093 736.982 357.825C716.835 352.347 662.723 344.677 662.723 344.677C662.723 344.677 610.594 336.38 603.143 319.79C596.5 305 600.5 314 596 304.5C591.5 295 594.162 306.643 589.327 255.93C588.463 245.756 585.01 224.751 578.102 222.121C577.187 221.773 576.454 221.498 575.876 221.285C576.341 221.573 576.795 221.852 577.238 222.121C574.991 221.171 572.093 219.89 575.876 221.285C558.264 210.351 526.381 186.104 529.747 170C533.201 153.471 538.545 150 544 138C549.455 126 547 112 527 105.5C507 99 512.222 104.769 468.75 104.5C425.278 104.231 410.528 92.8758 407.75 45.25L405 -13H454C454 -13 438 60 454 66C470 72 544.441 67 565 86Z" fill="url(#paint10_radial_215_146)"/>
<defs>
<linearGradient id="paint0_linear_215_146" x1="192" y1="407" x2="253" y2="407" gradientUnits="userSpaceOnUse">
<stop offset="0.155" stop-color="#FF9FD9"/>
<stop offset="0.37" stop-color="#FFA1DA"/>
<stop offset="0.658483" stop-color="#DC514F"/>
</linearGradient>
<linearGradient id="paint1_linear_215_146" x1="372.543" y1="566.45" x2="440.092" y2="566.45" gradientUnits="userSpaceOnUse">
<stop offset="0.155" stop-color="#EA863C"/>
<stop offset="0.37" stop-color="#EA873E"/>
<stop offset="0.658483" stop-color="#DC514F"/>
</linearGradient>
<linearGradient id="paint2_linear_215_146" x1="555.231" y1="293.958" x2="612.391" y2="293.958" gradientUnits="userSpaceOnUse">
<stop offset="0.29" stop-color="#DC514F"/>
<stop offset="0.59" stop-color="#D8B23A"/>
<stop offset="1" stop-color="#D8B23A"/>
</linearGradient>
<linearGradient id="paint3_linear_215_146" x1="555.231" y1="293.958" x2="612.391" y2="293.958" gradientUnits="userSpaceOnUse">
<stop offset="0.29" stop-color="#DC514F"/>
<stop offset="0.2901" stop-color="#DC564E"/>
<stop offset="0.567713" stop-color="#74BBFA"/>
<stop offset="0.768199" stop-color="#72BAFA"/>
</linearGradient>
<linearGradient id="paint4_linear_215_146" x1="549.982" y1="425.606" x2="597.988" y2="425.606" gradientUnits="userSpaceOnUse">
<stop offset="0.29" stop-color="#DC514F"/>
<stop offset="0.59" stop-color="#D8B23A"/>
<stop offset="1" stop-color="#D8B23A"/>
</linearGradient>
<linearGradient id="paint5_linear_215_146" x1="549.982" y1="425.606" x2="597.988" y2="425.606" gradientUnits="userSpaceOnUse">
<stop offset="0.29" stop-color="#DC514F"/>
<stop offset="0.59" stop-color="#D8B23A"/>
<stop offset="1" stop-color="#D8B23A"/>
</linearGradient>
<radialGradient id="paint6_radial_215_146" cx="0" cy="0" r="1" gradientUnits="userSpaceOnUse" gradientTransform="translate(93.5 400.5) rotate(76.4888) scale(454.067 211.002)">
<stop stop-color="#FFC5E8"/>
<stop offset="1" stop-color="#FF7CCB"/>
</radialGradient>
<radialGradient id="paint7_radial_215_146" cx="0" cy="0" r="1" gradientUnits="userSpaceOnUse" gradientTransform="translate(686.025 511.395) rotate(90) scale(135.395 107.457)">
<stop stop-color="#F1CF64"/>
<stop offset="1" stop-color="#D7B13A"/>
</radialGradient>
<radialGradient id="paint8_radial_215_146" cx="0" cy="0" r="1" gradientUnits="userSpaceOnUse" gradientTransform="translate(395.915 598.799) rotate(-2.28515) scale(156.902 60.7576)">
<stop stop-color="#FCAA6D"/>
<stop offset="1" stop-color="#E88439"/>
</radialGradient>
<radialGradient id="paint9_radial_215_146" cx="0" cy="0" r="1" gradientUnits="userSpaceOnUse" gradientTransform="translate(398.884 325.934) rotate(90) scale(177.934 168.886)">
<stop offset="0.42" stop-color="#FF9391"/>
<stop offset="1" stop-color="#DC514E"/>
</radialGradient>
<radialGradient id="paint10_radial_215_146" cx="0" cy="0" r="1" gradientUnits="userSpaceOnUse" gradientTransform="translate(674.5 244.5) rotate(124.297) scale(137.981 142.442)">
<stop stop-color="#9CCFFB"/>
<stop offset="1" stop-color="#4DA8F8"/>
</radialGradient>
</defs>
</svg>
