<svg width="794" height="824" viewBox="0 0 794 824" fill="none" xmlns="http://www.w3.org/2000/svg">
<path d="M198.887 394.631H245.622V428.433H198.887V394.631Z" fill="#3A3A3A" fill-opacity="0.84"/>
<path d="M378.945 553.017L379.647 501.279L413.725 501.742L413.022 553.48L378.945 553.017Z" fill="#3A3A3A" fill-opacity="0.84"/>
<path d="M559.754 280.3L603.533 281.391L602.594 319.073L558.815 317.983L559.754 280.3Z" fill="#3A3A3A" fill-opacity="0.84"/>
<path d="M553.788 411.732L590.556 412.647L589.645 449.232L552.876 448.317L553.788 411.732Z" fill="#3A3A3A" fill-opacity="0.84"/>
<path d="M348.11 85.4412C360.409 66.353 352.856 -0.720994 349.44 -10L394.021 -2.54366C394.021 6.56966 402.94 80.3709 398.84 103.834C394.741 127.296 351.356 125.871 330.175 122.226C285.594 119.409 245.127 109.111 190.796 113.775C168.224 115.713 149.052 105.846 133.404 122.226C117.893 138.462 127.255 179.391 127.255 179.391C145.873 179.391 197.117 160.173 202.581 189.333C204.935 201.894 199.863 213.193 194.91 221.147C222.581 235.065 186.184 245.007 207.193 264.891C224.001 280.797 207.145 305.321 198.604 313.108C190.064 320.896 133.221 314.102 133.221 314.102L131.415 357.846C145.934 357.846 180.096 359.039 200.593 363.811C221.09 368.583 212.208 391.648 205.205 402.584C211.385 413.355 221.032 436.884 210.176 444.837C204.369 454.282 196.238 478.043 210.176 497.529C227.599 521.886 188.655 571.098 210.176 582.034C227.394 590.783 217.35 626.44 210.176 639.696C203.002 652.952 133.404 641.684 133.404 641.684V844H92.4103V641.684C92.4103 641.684 57.8907 656.526 40.2882 646.158C37.6897 644.628 36.3515 643.565 33.9939 641.684C20.4429 630.875 29.1771 615.14 9.90973 604.403C-14.1745 590.981 33.9939 570.601 14.5216 562.15C-4.95068 553.7 19.3471 492.558 7.56117 466.709C-4.22477 440.86 32.0052 411.035 24.3189 408.549C18.1698 406.561 10.9164 402.419 9.54987 394.134C9.54987 376.736 22.7816 389.66 16.6323 363.811C10.4831 337.963 66.6791 349.064 95.5457 357.846L94.399 318.079C77.8305 317.085 36.3864 340.993 19.6154 317.085C10.3721 303.908 32.9996 287.26 13.5273 276.324C-5.94503 265.388 32.9996 251.469 17.6267 235.065C2.25381 218.661 45.2368 210.211 34.9883 210.211C24.7398 210.211 25.963 194.808 27.3019 184.362C30.0051 163.273 73.4784 173.9 87.8433 178.012C85.3677 174.322 84.2653 163.321 92.4103 132.168C110.345 63.5693 182.085 92.4005 213.855 85.4412C245.625 78.482 332.738 109.302 348.11 85.4412Z" fill="#3A3A3A" fill-opacity="0.84"/>
<path d="M776.379 396.751C782.528 370.902 726.332 382.004 697.466 390.786H661.596C647.077 390.786 612.916 391.979 592.419 396.751C571.922 401.523 580.804 424.588 587.807 435.524C587.186 441.036 586.318 453.823 587.807 460.876C593.614 470.32 601.745 494.081 587.807 513.567C570.384 537.924 609.329 577.195 587.807 588.13C570.589 596.879 580.633 625.578 587.807 638.834C594.981 652.089 661.596 649.77 661.596 649.77H761.006C761.006 644.136 765.823 630.184 785.09 619.447C809.174 606.026 761.006 585.645 780.478 577.195C799.951 568.744 768.692 527.486 780.478 501.637C792.264 475.788 761.006 443.975 768.692 441.489C774.842 439.501 780.415 425.775 780.478 414.149C780.517 407.169 770.23 422.6 776.379 396.751Z" fill="#3A3A3A" fill-opacity="0.84"/>
<path d="M258.396 651.719C233.24 658.877 242.372 620.083 250.407 601.147L249.485 578.052C249.112 568.703 249.426 571.515 253.669 558.127C257.911 544.739 368.693 542.579 379.802 546.652C379.802 546.652 382.667 537.05 418.054 545.126C453.441 553.203 475.618 550.592 475.618 550.592C475.618 550.592 521.806 546.468 535.238 550.558L548.064 572.778L549.117 599.173C549.117 599.173 558.171 624.173 550.618 636.786C543.783 648.199 531.169 640.668 520.934 653.502C508.139 669.544 477.584 637.354 469.64 650.229C461.695 663.103 409.723 645.019 384.193 653.638C358.664 662.257 339.489 646.964 310.864 648.963C297.116 649.923 289.664 654.073 275.889 653.665C269.018 653.461 277.938 646.158 258.396 651.719Z" fill="#3A3A3A" fill-opacity="0.84"/>
<path d="M567.294 326.033C567.294 373.49 571.908 437.208 542.933 470.686C513.912 504.216 451.264 507.47 403.724 507.47C356.184 507.47 293.164 513.164 262.029 479.633C230.942 446.155 231.701 373.49 231.701 326.033C231.701 231.043 308.718 154.04 403.724 154.04C498.729 154.04 567.294 231.043 567.294 326.033ZM268.989 361.326C268.989 444.801 320.234 460.744 403.724 460.744C487.213 460.744 534.481 435.356 534.481 351.881C534.481 268.406 450.458 381.707 408.198 382.204C365.938 382.701 268.989 277.851 268.989 361.326Z" fill="#3A3A3A" fill-opacity="0.84"/>
<path d="M404.52 344.153C401.63 345.178 396.869 345.178 393.978 344.153C369.323 335.693 314.232 300.4 314.232 240.582C314.232 214.176 335.401 192.813 361.501 192.813C376.975 192.813 390.662 200.333 399.249 211.954C407.836 200.333 421.609 192.813 436.997 192.813C463.097 192.813 484.266 214.176 484.266 240.582C484.266 300.4 429.175 335.693 404.52 344.153Z" fill="#3A3A3A" fill-opacity="0.84"/>
<path d="M564.809 92.4005C585.251 111.29 552.937 197.946 587.281 205.788C587.281 205.788 601.877 161.44 620.767 158.639C629.066 156.149 656.828 156.118 701.475 175.911C722.368 186.96 767.245 220.914 779.609 266.476C782.745 278.034 784.622 284.93 785.592 288.472C785.568 288.326 785.544 288.179 785.52 288.033C784.213 283.133 781.735 273.911 779.609 266.009C781.801 271.557 784.073 279.275 785.52 288.033C786.576 291.992 786.867 293.13 785.592 288.472C788.964 309.372 787.588 336.042 769.305 353.307C766.165 356.272 747.769 365.892 735.82 362.643C715.786 357.197 661.98 349.572 661.98 349.572C661.98 349.572 610.145 341.323 602.736 324.83C596.131 310.126 600.108 319.073 595.634 309.629C591.159 300.184 593.806 311.759 588.998 261.341C588.14 251.226 584.705 230.344 577.836 227.729C576.927 227.383 576.198 227.11 575.624 226.898C576.085 227.184 576.537 227.462 576.978 227.729C574.743 226.784 571.862 225.511 575.624 226.898C558.11 216.027 526.408 191.922 529.754 175.911C533.189 159.479 538.504 156.028 543.927 144.098C549.351 132.168 546.91 118.249 527.023 111.787C507.136 105.325 512.329 111.06 469.102 110.793C425.876 110.526 411.209 99.2363 408.447 51.8877L405.712 -6.02328H454.436C454.436 -6.02328 438.526 66.5518 454.436 72.5169C470.345 78.482 544.366 73.5111 564.809 92.4005Z" fill="#3A3A3A" fill-opacity="0.84"/>
<rect x="197" y="390" width="47" height="34" fill="url(#paint0_linear_215_146)"/>
<rect x="378.08" y="549.313" width="52.0455" height="34.2744" transform="rotate(-89.2217 378.08 549.313)" fill="url(#paint1_linear_215_146)"/>
<rect x="559.917" y="275" width="44.0412" height="37.9152" transform="rotate(1.42673 559.917 275)" fill="url(#paint2_linear_215_146)"/>
<rect x="559.917" y="275" width="44.0412" height="37.9152" transform="rotate(1.42673 559.917 275)" fill="url(#paint3_linear_215_146)"/>
<rect x="553.917" y="407.201" width="36.9885" height="36.8106" transform="rotate(1.42673 553.917 407.201)" fill="url(#paint4_linear_215_146)"/>
<rect x="553.917" y="407.201" width="36.9885" height="36.8106" transform="rotate(1.42673 553.917 407.201)" fill="url(#paint5_linear_215_146)"/>
<path d="M347.071 79C359.439 59.8 351.844 -7.66667 348.408 -17L393.242 -9.5C393.242 -0.333332 402.212 73.9 398.089 97.5C393.966 121.1 350.334 119.667 329.034 116C284.2 113.167 243.502 102.809 188.863 107.5C166.163 109.449 146.881 99.5247 131.145 116C115.545 132.332 124.961 173.5 124.961 173.5C143.685 173.5 195.22 154.17 200.715 183.5C203.082 196.135 197.982 207.5 193 215.5C220.828 229.5 184.224 239.5 205.353 259.5C222.256 275.5 205.304 300.167 196.715 308C188.126 315.833 130.961 309 130.961 309L129.145 353C143.746 353 178.102 354.2 198.715 359C219.329 363.8 210.396 387 203.353 398C209.569 408.833 219.271 432.5 208.353 440.5C202.513 450 194.336 473.9 208.353 493.5C225.875 518 186.709 567.5 208.353 578.5C225.669 587.3 215.568 623.167 208.353 636.5C201.139 649.833 131.145 638.5 131.145 638.5V842H89.9182V638.5C89.9182 638.5 55.2025 653.429 37.5 643C34.8867 641.461 33.5409 640.392 31.17 638.5C17.542 627.627 26.3258 611.8 6.94898 601C-17.272 587.5 31.17 567 11.5871 558.5C-7.99584 550 16.44 488.5 4.58708 462.5C-7.26581 436.5 29.17 406.5 21.44 404C15.2559 402 7.96136 397.833 6.58708 389.5C6.58708 372 19.8939 385 13.7098 359C7.52564 333 64.0408 344.167 93.0714 353L91.9182 313C75.2556 312 33.576 336.048 16.7098 312C7.41398 298.746 30.17 282 10.5871 271C-8.99584 260 30.17 246 14.7098 229.5C-0.750431 213 42.4767 204.5 32.17 204.5C21.8633 204.5 23.0934 189.007 24.44 178.5C27.1585 157.287 70.8787 167.977 85.3252 172.113C82.8356 168.401 81.727 157.336 89.9182 126C107.955 57 180.102 86 212.053 79C244.004 72 331.611 103 347.071 79Z" fill="url(#paint6_radial_215_146)"/>
<path d="M777.772 392.132C783.956 366.132 727.441 377.299 698.411 386.132H662.337C647.736 386.132 613.38 387.332 592.767 392.132C572.153 396.932 581.086 420.132 588.129 431.132C587.505 436.677 586.632 449.538 588.129 456.632C593.969 466.132 602.146 490.032 588.129 509.632C570.607 534.132 609.773 573.632 588.129 584.632C570.813 593.432 580.914 622.299 588.129 635.632C595.343 648.966 662.337 646.632 662.337 646.632H703.564H762.312C762.312 640.966 767.156 626.932 786.533 616.132C810.754 602.632 762.312 582.132 781.895 573.632C801.478 565.132 770.042 523.632 781.895 497.632C793.748 471.632 762.312 439.632 770.042 437.132C776.226 435.132 781.831 421.327 781.895 409.632C781.933 402.611 771.588 418.132 777.772 392.132Z" fill="url(#paint7_radial_215_146)"/>
<path d="M256.847 648.593C231.548 655.793 240.732 616.772 248.812 597.725L247.885 574.494C247.51 565.092 247.826 567.919 252.093 554.453C256.359 540.987 367.77 538.815 378.943 542.911C378.943 542.911 381.824 533.253 417.412 541.376C453 549.5 475.302 546.874 475.302 546.874C475.302 546.874 521.753 542.726 535.261 546.84L548.16 569.191L549.219 595.74C549.219 595.74 558.325 620.886 550.729 633.572C543.855 645.052 531.169 637.477 520.876 650.386C508.009 666.523 477.28 634.144 469.29 647.094C461.3 660.044 409.033 641.854 383.359 650.523C357.684 659.193 338.401 643.81 309.613 645.821C295.786 646.787 288.293 650.961 274.439 650.55C267.529 650.346 276.5 643 256.847 648.593Z" fill="url(#paint8_radial_215_146)"/>
<path d="M567.5 321C567.5 368.735 572.14 432.826 543 466.5C513.814 500.227 450.81 503.5 403 503.5C355.19 503.5 291.813 509.227 260.5 475.5C229.237 441.826 230 368.735 230 321C230 225.455 307.455 148 403 148C498.545 148 567.5 225.455 567.5 321ZM267.5 356.5C267.5 440.464 319.036 456.5 403 456.5C486.964 456.5 534.5 430.964 534.5 347C534.5 263.036 450 377 407.5 377.5C365 378 267.5 272.536 267.5 356.5Z" fill="url(#paint9_radial_215_146)"/>
<path d="M403.801 339.226C400.894 340.258 396.106 340.258 393.199 339.226C368.404 330.717 313 295.218 313 235.049C313 208.489 334.289 187 360.538 187C376.099 187 389.864 194.564 398.5 206.254C407.135 194.564 420.986 187 436.462 187C462.71 187 484 208.489 484 235.049C484 295.218 428.596 330.717 403.801 339.226Z" fill="#C33C3A" stroke="#FF9391" stroke-width="1.5" stroke-linecap="round" stroke-linejoin="round"/>
<path d="M565 86C585.559 105 553.061 192.163 587.6 200.052C587.6 200.052 602.279 155.443 621.276 152.626C629.623 150.122 657.542 150.09 702.443 170C723.455 181.113 768.586 215.266 781.02 261.095C784.174 272.721 786.062 279.657 787.037 283.22C787.013 283.072 786.989 282.925 786.965 282.778C785.651 277.849 783.159 268.573 781.02 260.625C783.225 266.206 785.51 273.969 786.965 282.778C788.027 286.76 788.32 287.905 787.037 283.22C790.429 304.242 789.044 331.068 770.658 348.434C767.5 351.417 749 361.093 736.982 357.825C716.835 352.347 662.723 344.677 662.723 344.677C662.723 344.677 610.594 336.38 603.143 319.79C596.5 305 600.5 314 596 304.5C591.5 295 594.162 306.643 589.327 255.93C588.463 245.756 585.01 224.751 578.102 222.121C577.187 221.773 576.454 221.498 575.876 221.285C576.341 221.573 576.795 221.852 577.238 222.121C574.991 221.171 572.093 219.89 575.876 221.285C558.264 210.351 526.381 186.104 529.747 170C533.201 153.471 538.545 150 544 138C549.455 126 547 112 527 105.5C507 99 512.222 104.769 468.75 104.5C425.278 104.231 410.528 92.8758 407.75 45.25L405 -13H454C454 -13 438 60 454 66C470 72 544.441 67 565 86Z" fill="url(#paint10_radial_215_146)"/>
<g opacity="0.5" filter="url(#filter0_i_215_146)">
<path d="M199.887 389.631H246.622V423.433H199.887V389.631Z" fill="#3A3A3A" fill-opacity="0.05"/>
<path d="M379.945 548.017L380.647 496.279L414.725 496.742L414.022 548.48L379.945 548.017Z" fill="#3A3A3A" fill-opacity="0.05"/>
<path d="M560.754 275.3L604.533 276.391L603.594 314.073L559.815 312.983L560.754 275.3Z" fill="#3A3A3A" fill-opacity="0.05"/>
<path d="M554.788 406.732L591.556 407.647L590.645 444.232L553.876 443.317L554.788 406.732Z" fill="#3A3A3A" fill-opacity="0.05"/>
<path d="M349.11 80.4412C361.409 61.353 353.856 -5.72099 350.44 -15L395.021 -7.54366C395.021 1.56966 403.94 75.3709 399.84 98.8335C395.741 122.296 352.356 120.871 331.175 117.226C286.594 114.409 246.127 104.111 191.796 108.775C169.224 110.713 150.052 100.846 134.404 117.226C118.893 133.462 128.255 174.391 128.255 174.391C146.873 174.391 198.117 155.173 203.581 184.333C205.935 196.894 200.863 208.193 195.91 216.147C223.581 230.065 187.184 240.007 208.193 259.891C225.001 275.797 208.145 300.32 199.604 308.108C191.064 315.896 134.221 309.102 134.221 309.102L132.415 352.846C146.934 352.846 181.096 354.039 201.593 358.811C222.09 363.583 213.208 386.648 206.205 397.584C212.385 408.355 222.032 431.884 211.176 439.837C205.369 449.282 197.238 473.043 211.176 492.529C228.599 516.886 189.655 566.098 211.176 577.034C228.394 585.783 218.35 621.44 211.176 634.696C204.002 647.952 134.404 636.685 134.404 636.685V839H93.4103V636.685C93.4103 636.685 58.8907 651.526 41.2882 641.158C38.6897 639.628 37.3515 638.565 34.9939 636.685C21.4429 625.875 30.1771 610.14 10.9097 599.403C-13.1745 585.981 34.9939 565.601 15.5216 557.15C-3.95068 548.7 20.3471 487.558 8.56117 461.709C-3.22477 435.86 33.0052 406.035 25.3189 403.549C19.1698 401.561 11.9164 397.419 10.5499 389.134C10.5499 371.736 23.7816 384.66 17.6323 358.811C11.4831 332.963 67.6791 344.064 96.5457 352.846L95.399 313.079C78.8305 312.085 37.3864 335.993 20.6154 312.085C11.3721 298.908 33.9996 282.26 14.5273 271.324C-4.94503 260.388 33.9996 246.469 18.6267 230.065C3.25381 213.661 46.2368 205.211 35.9883 205.211C25.7398 205.211 26.963 189.808 28.3019 179.362C31.0051 158.273 74.4784 168.9 88.8433 173.012C86.3677 169.322 85.2653 158.321 93.4103 127.168C111.345 58.5693 183.085 87.4005 214.855 80.4412C246.625 73.482 333.738 104.302 349.11 80.4412Z" fill="#3A3A3A" fill-opacity="0.05"/>
<path d="M777.379 391.751C783.528 365.902 727.332 377.004 698.466 385.786H662.596C648.077 385.786 613.916 386.979 593.419 391.751C572.922 396.523 581.803 419.588 588.807 430.524C588.186 436.036 587.318 448.823 588.807 455.876C594.614 465.32 602.745 489.081 588.807 508.567C571.384 532.924 610.328 572.195 588.807 583.13C571.589 591.879 581.633 620.578 588.807 633.834C595.981 647.089 662.596 644.77 662.596 644.77H762.006C762.006 639.136 766.823 625.184 786.09 614.447C810.174 601.026 762.006 580.645 781.478 572.195C800.951 563.744 769.692 522.486 781.478 496.637C793.264 470.788 762.006 438.974 769.692 436.489C775.842 434.501 781.415 420.775 781.478 409.149C781.517 402.169 771.23 417.6 777.379 391.751Z" fill="#3A3A3A" fill-opacity="0.05"/>
<path d="M259.396 646.719C234.24 653.877 243.372 615.083 251.407 596.147L250.485 573.052C250.112 563.703 250.426 566.515 254.669 553.127C258.911 539.739 369.693 537.579 380.802 541.652C380.802 541.652 383.667 532.05 419.054 540.126C454.441 548.202 476.618 545.592 476.618 545.592C476.618 545.592 522.806 541.468 536.238 545.558L549.064 567.778L550.117 594.173C550.117 594.173 559.171 619.173 551.618 631.786C544.783 643.199 532.169 635.668 521.934 648.502C509.139 664.544 478.584 632.354 470.64 645.229C462.695 658.103 410.723 640.019 385.193 648.638C359.664 657.257 340.489 641.964 311.864 643.963C298.116 644.923 290.664 649.073 276.889 648.665C270.018 648.461 278.938 641.158 259.396 646.719Z" fill="#3A3A3A" fill-opacity="0.05"/>
<path d="M568.294 321.033C568.294 368.49 572.908 432.208 543.933 465.686C514.912 499.216 452.264 502.47 404.724 502.47C357.184 502.47 294.164 508.164 263.029 474.633C231.942 441.155 232.701 368.49 232.701 321.033C232.701 226.043 309.718 149.04 404.724 149.04C499.729 149.04 568.294 226.043 568.294 321.033ZM269.989 356.326C269.989 439.801 321.234 455.744 404.724 455.744C488.213 455.744 535.481 430.356 535.481 346.881C535.481 263.406 451.458 376.707 409.198 377.204C366.938 377.701 269.989 272.851 269.989 356.326Z" fill="#3A3A3A" fill-opacity="0.05"/>
<path d="M405.52 339.153C402.63 340.178 397.869 340.178 394.978 339.153C370.323 330.693 315.232 295.4 315.232 235.582C315.232 209.176 336.401 187.813 362.501 187.813C377.975 187.813 391.662 195.333 400.249 206.954C408.836 195.333 422.609 187.813 437.997 187.813C464.097 187.813 485.266 209.176 485.266 235.582C485.266 295.4 430.175 330.693 405.52 339.153Z" fill="#3A3A3A" fill-opacity="0.05"/>
<path d="M565.809 87.4005C586.252 106.29 553.937 192.946 588.281 200.788C588.281 200.788 602.877 156.44 621.767 153.639C630.066 151.149 657.828 151.118 702.475 170.911C723.368 181.96 768.245 215.914 780.609 261.476C783.745 273.034 785.622 279.93 786.592 283.473C786.568 283.326 786.544 283.179 786.52 283.033C785.213 278.133 782.735 268.911 780.609 261.009C782.801 266.557 785.073 274.275 786.52 283.033C787.576 286.992 787.867 288.13 786.592 283.473C789.964 304.372 788.588 331.042 770.305 348.307C767.165 351.272 748.769 360.892 736.82 357.643C716.786 352.197 662.98 344.572 662.98 344.572C662.98 344.572 611.145 336.323 603.736 319.83C597.131 305.126 601.108 314.073 596.634 304.629C592.159 295.184 594.806 306.759 589.998 256.341C589.14 246.226 585.705 225.344 578.836 222.729C577.927 222.383 577.198 222.11 576.624 221.898C577.085 222.184 577.537 222.462 577.978 222.729C575.743 221.784 572.862 220.511 576.624 221.898C559.11 211.027 527.408 186.922 530.754 170.911C534.189 154.479 539.504 151.028 544.927 139.098C550.351 127.168 547.91 113.249 528.023 106.787C508.136 100.325 513.329 106.06 470.102 105.793C426.876 105.526 412.209 94.2363 409.447 46.8877L406.712 -11.0233H455.436C455.436 -11.0233 439.526 61.5518 455.436 67.5169C471.345 73.482 545.366 68.5111 565.809 87.4005Z" fill="#3A3A3A" fill-opacity="0.05"/>
</g>
<defs>
<filter id="filter0_i_215_146" x="4" y="-15" width="789" height="858" filterUnits="userSpaceOnUse" color-interpolation-filters="sRGB">
<feFlood flood-opacity="0" result="BackgroundImageFix"/>
<feBlend mode="normal" in="SourceGraphic" in2="BackgroundImageFix" result="shape"/>
<feColorMatrix in="SourceAlpha" type="matrix" values="0 0 0 0 0 0 0 0 0 0 0 0 0 0 0 0 0 0 127 0" result="hardAlpha"/>
<feOffset dy="4"/>
<feGaussianBlur stdDeviation="2"/>
<feComposite in2="hardAlpha" operator="arithmetic" k2="-1" k3="1"/>
<feColorMatrix type="matrix" values="0 0 0 0 0 0 0 0 0 0 0 0 0 0 0 0 0 0 1 0"/>
<feBlend mode="normal" in2="shape" result="effect1_innerShadow_215_146"/>
</filter>
<linearGradient id="paint0_linear_215_146" x1="192" y1="407" x2="253" y2="407" gradientUnits="userSpaceOnUse">
<stop offset="0.155" stop-color="#FF9FD9"/>
<stop offset="0.37" stop-color="#FFA1DA"/>
<stop offset="0.658483" stop-color="#DC514F"/>
</linearGradient>
<linearGradient id="paint1_linear_215_146" x1="372.543" y1="566.45" x2="440.092" y2="566.45" gradientUnits="userSpaceOnUse">
<stop offset="0.155" stop-color="#EA863C"/>
<stop offset="0.37" stop-color="#EA873E"/>
<stop offset="0.658483" stop-color="#DC514F"/>
</linearGradient>
<linearGradient id="paint2_linear_215_146" x1="555.231" y1="293.958" x2="612.391" y2="293.958" gradientUnits="userSpaceOnUse">
<stop offset="0.29" stop-color="#DC514F"/>
<stop offset="0.59" stop-color="#D8B23A"/>
<stop offset="1" stop-color="#D8B23A"/>
</linearGradient>
<linearGradient id="paint3_linear_215_146" x1="555.231" y1="293.958" x2="612.391" y2="293.958" gradientUnits="userSpaceOnUse">
<stop offset="0.29" stop-color="#DC514F"/>
<stop offset="0.2901" stop-color="#DC564E"/>
<stop offset="0.567713" stop-color="#74BBFA"/>
<stop offset="0.768199" stop-color="#72BAFA"/>
</linearGradient>
<linearGradient id="paint4_linear_215_146" x1="549.982" y1="425.606" x2="597.988" y2="425.606" gradientUnits="userSpaceOnUse">
<stop offset="0.29" stop-color="#DC514F"/>
<stop offset="0.59" stop-color="#D8B23A"/>
<stop offset="1" stop-color="#D8B23A"/>
</linearGradient>
<linearGradient id="paint5_linear_215_146" x1="549.982" y1="425.606" x2="597.988" y2="425.606" gradientUnits="userSpaceOnUse">
<stop offset="0.29" stop-color="#DC514F"/>
<stop offset="0.59" stop-color="#D8B23A"/>
<stop offset="1" stop-color="#D8B23A"/>
</linearGradient>
<radialGradient id="paint6_radial_215_146" cx="0" cy="0" r="1" gradientUnits="userSpaceOnUse" gradientTransform="translate(93.5 400.5) rotate(76.4888) scale(454.067 211.002)">
<stop stop-color="#FFC5E8"/>
<stop offset="1" stop-color="#FF7CCB"/>
</radialGradient>
<radialGradient id="paint7_radial_215_146" cx="0" cy="0" r="1" gradientUnits="userSpaceOnUse" gradientTransform="translate(686.025 511.395) rotate(90) scale(135.395 107.457)">
<stop stop-color="#F1CF64"/>
<stop offset="1" stop-color="#D7B13A"/>
</radialGradient>
<radialGradient id="paint8_radial_215_146" cx="0" cy="0" r="1" gradientUnits="userSpaceOnUse" gradientTransform="translate(395.915 598.799) rotate(-2.28515) scale(156.902 60.7576)">
<stop stop-color="#FCAA6D"/>
<stop offset="1" stop-color="#E88439"/>
</radialGradient>
<radialGradient id="paint9_radial_215_146" cx="0" cy="0" r="1" gradientUnits="userSpaceOnUse" gradientTransform="translate(398.884 325.934) rotate(90) scale(177.934 168.886)">
<stop offset="0.42" stop-color="#FF9391"/>
<stop offset="1" stop-color="#DC514E"/>
</radialGradient>
<radialGradient id="paint10_radial_215_146" cx="0" cy="0" r="1" gradientUnits="userSpaceOnUse" gradientTransform="translate(674.5 244.5) rotate(124.297) scale(137.981 142.442)">
<stop stop-color="#9CCFFB"/>
<stop offset="1" stop-color="#4DA8F8"/>
</radialGradient>
</defs>
</svg>
