<svg width="830" height="824" viewBox="0 0 830 824" fill="none" xmlns="http://www.w3.org/2000/svg">
<g filter="url(#filter0_i_286_17)">
<path d="M205.3 391.232H252.886V426.661H205.3V391.232Z" fill="#343434"/>
<path d="M331.26 62.7559C343.783 43.3207 324.614 -4.22148 321.136 -13.6692L403.991 -12.1508C403.991 -2.87181 416.402 61.2375 410.833 84.5193C405.619 106.318 387.546 109.826 340.466 109.826C294.981 109.826 266.555 109.32 206.024 105.271C183.008 103.731 158.459 96.6914 142.526 113.369C126.732 129.9 142.486 173.091 142.486 173.091C142.486 173.091 193.295 158.361 209.061 179.165C216.985 189.621 217.956 211.557 217.956 211.557C217.956 211.557 221.202 230.695 221.202 260.145C221.202 271.786 221.572 309.707 206.024 322.399C188.638 336.59 162.068 305.491 148.561 323.411C139.256 335.756 130.927 354.791 145.71 354.791C160.493 354.791 187.178 356.006 208.049 360.864C228.919 365.723 219.875 389.207 212.745 400.342C219.038 411.308 221.536 446.685 217.807 464.114C215.425 475.249 214.431 472.855 217.807 497.012C221.202 521.306 221.259 542.019 221.202 570.907C221.148 598.61 239.241 624.207 217.807 641.765C200.299 656.106 185.666 627.425 159.885 643.789C152.721 648.336 149.254 657.423 146.026 669.635C144.803 674.262 152.966 679.338 152.606 684.785C152.381 688.189 143.392 691.738 143.454 695.414C143.547 700.89 151.98 706.647 152.606 712.622C153.338 719.611 142.18 726.393 143.454 733.88C144.884 742.28 154.35 748.906 156.194 757.667C157.922 765.876 144.176 769.12 146.026 777.406C147.425 783.676 154.842 793.478 156.194 799.676C157.763 806.869 151.756 816.006 153.113 822.958C154.784 831.515 169.286 842.361 170.369 850.289C175.438 887.393 163.787 915.491 137.61 920.64C121.616 923.787 126.038 923.787 110.044 920.64C84.0937 915.535 70.3383 884.146 73.171 844.215C73.7254 836.4 83.1656 828.258 84.2379 819.921C85.1984 812.453 77.0028 805.335 78.2334 797.651C79.4178 790.256 90.0209 782.298 91.3304 774.876C92.3479 769.109 86.5317 763.359 87.5589 757.667C88.9861 749.76 96.6636 746.518 97.9767 738.941C99.2771 731.437 87.3202 719.593 88.3582 712.622C89.2507 706.628 95.6662 700.87 96.2616 695.414C96.664 691.726 88.128 685.14 88.3582 681.749C88.7048 676.642 97.6992 674.932 97.5718 670.614C97.0831 654.045 88.6862 643.789 77.6442 643.789C21.9146 643.789 36.2153 648.344 16.8061 645.307C-2.60311 642.271 6.51753 613.657 5.8409 592.67C5.35478 577.593 8.96533 569.284 9.38459 554.205C10.2742 522.206 -2.69149 508.459 0.50941 472.718C2.65617 448.748 11.5983 437.413 9.47277 414.514C8.6738 405.906 5.54827 401.394 5.42287 392.75C5.24326 380.37 5.42712 371.945 12.6345 361.877C26.6177 342.342 36.3599 352.766 73.7494 354.791C111.139 356.815 88.1315 336.607 80.6816 322.399C69.8124 301.669 37.6635 338.565 20.7343 322.399C10.5709 312.693 10.012 294.178 7.35987 280.896C2.82088 258.165 6.34739 221.68 6.34739 221.68L9.38483 203.965C9.38483 203.965 14.9826 184.849 23.4986 176.128C42.5988 156.568 93.3836 171.887 93.3836 171.887C93.3836 171.887 89.1806 156.267 91.8189 122.985C93.3836 103.246 99.6197 88.5133 110.633 80.4378C142.526 57.6946 190.803 70.6043 214.918 70.3478C262.505 69.8417 315.607 87.05 331.26 62.7559Z" fill="#343434"/>
<path d="M575.361 408.835L612.8 409.767L611.811 449.45L574.373 448.517L575.361 408.835Z" fill="#343434"/>
<path d="M799.395 411.611C786.268 383.017 744.454 402.622 708.918 401.489C694.662 401.034 686.634 400.67 672.394 401.489C647.381 402.927 631.554 386.171 609.043 411.611C598.754 423.24 603.291 422.746 610.422 433.881C609.79 439.493 610.422 459.693 610.422 459.693C610.422 459.693 607.533 491.317 606.748 511.69C605.377 547.289 611.908 567.172 612.447 602.793C612.672 617.668 603.761 627.584 610.422 640.886C622.477 664.96 651.592 650.376 678.469 652.021C694.74 653.017 703.909 652.021 720.21 652.021C747.393 652.021 767.119 666.975 789.817 652.021C802.676 643.55 809.784 635.854 814.34 621.147C819.341 605.004 810.338 575.77 809.644 546.613C809.222 528.881 804.948 530.685 809.644 501.196C814.34 471.706 802.432 456.016 802.432 456.016L806.606 427.301C806.606 427.301 802.36 418.071 799.395 411.611Z" fill="#343434"/>
<path d="M390.237 553.517L390.953 500.839L425.067 501.302L424.351 553.981L390.237 553.517Z" fill="#343434"/>
<path d="M266.906 656.03C246.102 648.32 239.643 612.7 247.824 593.419C247.824 593.419 251.548 577.694 254.405 568.882C256.902 561.182 258.313 557.962 262.092 551.627C287.892 508.383 340.229 542.545 390.525 539.944C405.728 539.157 429.475 538.39 429.475 538.39C429.475 538.39 474.371 527.087 497.2 528.771C524.806 530.807 548.976 518.75 567.261 539.527C575.159 548.501 576.573 562.786 580.321 577.335C581.952 583.667 584.979 593.419 584.979 593.419C584.979 593.419 581.258 627.984 573.568 640.826C566.608 652.446 555.964 654.208 542.962 658.012C523.346 663.75 511.4 655.067 491.113 654.513C457.121 653.585 428.997 658.522 394.997 657.984C365.782 657.522 320.33 653.224 320.33 653.224L284.718 658.012C284.718 658.012 273.468 658.463 266.906 656.03Z" fill="#343434"/>
<path d="M577.677 338.51C578.708 393.613 591.726 450.565 566.093 479.538C535.934 513.627 473.51 501.545 413.08 502.832C357.589 504.014 300.562 514.155 271.634 488.951C237.06 458.827 249.337 396.263 248.483 338.51C247.651 282.229 233.035 237.628 261.055 208.165C291.047 176.629 353.472 193.802 413.08 194.432C470.459 195.038 529.45 180.941 559.168 210.189C589.447 239.989 576.606 281.272 577.677 338.51ZM279.065 338.51C279.211 386.385 270.898 434.754 298.231 459.595C322.4 481.56 367.861 474.28 413.08 474.323C461.518 474.369 511.165 484.143 535.99 457.664C558.752 433.384 549.12 338.51 549.12 338.51C549.12 338.51 549.12 251.222 532.203 234.569C507.422 208.577 459.821 222.624 413.08 222.941C365.467 223.264 316.713 210.675 291.932 236.668C268.704 261.032 278.942 298.422 279.065 338.51Z" fill="#343434"/>
<path d="M293.819 197.8L363.256 187.332C369.038 179.944 390.191 165.833 387.795 160.15C385.4 154.467 381.469 145.94 379.803 142.387L394.533 134.378C398.019 143.847 405.703 162.283 408.551 160.276C412.11 157.767 415.816 130.965 412.276 130.437C409.443 130.015 422.233 130.329 428.981 130.538C426.912 137.78 423.379 152.774 425.796 154.813C428.818 157.363 440.576 138.707 440.6 134.658C440.62 131.419 448.681 137.744 453.213 141.821C449.643 146.185 442.698 156.03 443.481 160.489C444.459 166.062 453.031 171.681 452.976 180.792L453.979 182.316C456.117 189.543 460.174 189.751 459.401 193.423C473.572 192.83 500.678 191.364 503.43 193.752C506.25 196.199 506.554 215.354 505.341 220.576C496.573 219.342 476.9 225.882 476.449 233.572C475.997 241.263 476.933 237.118 477.458 234.085C487.419 233.302 507.844 232.245 509.857 234.282C511.869 236.318 513.324 246.956 513.799 252.02L484.944 251.845C503.523 276.927 533.268 346.675 493.302 374.942C481.297 383.433 477.922 384.846 466.984 388.701C433.152 400.627 402.733 394.775 375.753 377.979C348.773 361.183 333.87 335.82 329.226 301.006C325.531 273.301 339.133 234.731 342.816 230.736C346.499 226.741 328.78 221.173 327.721 221.564C326.662 221.955 292.807 217.852 292.807 217.852L291.089 216.02L293.819 197.8Z" fill="#343434"/>
<path d="M390.584 499.542H425.008V547.118H390.584V499.542Z" fill="#343434"/>
<path d="M205.3 391.232L253.899 391.231V426.66L205.3 426.661V391.232Z" fill="#343434"/>
<path d="M567.768 409.452H601.18L599.155 448.929H567.768V409.452Z" fill="#343434"/>
<path d="M569.793 275.835H595.105V315.313H569.793V275.835Z" fill="#343434"/>
<path d="M485.588 65.7927C473.066 46.3574 480.085 1.85204 483.563 -7.59566L380.458 -6.07728C380.458 3.20171 387.187 57.435 390.322 81.4826C393.621 106.789 456.096 113.875 474.358 113.875C519.752 111.007 608.8 111.344 608.8 111.344C608.8 111.344 655.692 105.534 670.534 113.635C692.042 125.374 684.875 156.892 681.45 179.165H716.93C716.93 179.165 735.589 184.935 720.98 129.058C715.538 108.245 716.467 93.9051 703.946 85.5494C674.449 65.865 593.831 75.4091 593.831 75.4091C593.831 75.4091 501.241 90.0867 485.588 65.7927Z" fill="#343434"/>
<path d="M715.532 144.602C736.737 147.639 789.143 185.737 803.675 236.211C815.63 277.73 825.018 324.044 791.686 351.541C774.355 365.839 740.902 373.011 740.902 373.011C740.902 373.011 692.264 379.351 666.204 365.959C639.133 352.048 633.674 343.389 616.005 306.351C608.938 291.537 613.329 300.489 608.773 290.873C604.217 281.257 609.93 242.145 609.93 242.145C609.93 242.145 620.074 159.207 660.41 144.602C680.65 137.274 694.328 141.566 715.532 144.602Z" fill="#343434"/>
<path d="M577.892 275.835H618.391L624.466 315.313H577.892V275.835Z" fill="#343434"/>
</g>
<g filter="url(#filter1_i_286_17)">
<path d="M208 389H255V424H208V389Z" fill="url(#paint0_radial_286_17)"/>
<path d="M332.408 64.5C344.776 45.3 325.844 -1.66667 322.408 -11L404.242 -9.5C404.242 -0.333333 416.5 63 411 86C405.851 107.534 388 111 341.5 111C296.577 111 268.5 110.5 208.715 106.5C185.983 104.979 161.737 98.0247 146 114.5C130.401 130.832 145.961 173.5 145.961 173.5C145.961 173.5 196.144 158.948 211.715 179.5C219.541 189.829 220.5 211.5 220.5 211.5C220.5 211.5 223.707 230.407 223.707 259.5C223.707 271 224.072 308.462 208.715 321C191.544 335.019 165.302 304.297 151.961 322C142.771 334.195 134.544 353 149.145 353C163.746 353 190.102 354.2 210.715 359C231.329 363.8 222.396 387 215.353 398C221.569 408.833 224.037 443.782 220.353 461C218 472 217.019 469.635 220.353 493.5C223.707 517.5 223.763 537.962 223.707 566.5C223.653 593.868 241.523 619.155 220.353 636.5C203.061 650.668 188.609 622.334 163.145 638.5C156.07 642.992 152.646 651.969 149.457 664.033C148.249 668.604 156.312 673.619 155.956 679C155.734 682.363 146.856 685.869 146.917 689.5C147.009 694.91 155.338 700.597 155.956 706.5C156.679 713.404 145.658 720.104 146.917 727.5C148.33 735.798 157.679 742.345 159.5 751C161.207 759.109 147.63 762.314 149.457 770.5C150.839 776.694 158.165 786.377 159.5 792.5C161.05 799.606 155.116 808.632 156.457 815.5C158.107 823.954 172.431 834.669 173.5 842.5C178.507 879.155 166.999 906.913 141.145 912C125.348 915.108 129.715 915.108 113.918 912C88.2884 906.957 74.7025 875.948 77.5002 836.5C78.0478 828.779 87.3717 820.736 88.4307 812.5C89.3795 805.122 81.2849 798.091 82.5002 790.5C83.67 783.194 94.1425 775.332 95.4358 768C96.4407 762.303 90.6963 756.623 91.7108 751C93.1204 743.188 100.703 739.986 102 732.5C103.285 725.087 91.4751 713.386 92.5002 706.5C93.3818 700.579 99.7182 694.89 100.306 689.5C100.704 685.857 92.2729 679.35 92.5002 676C92.8426 670.956 101.726 669.266 101.6 665C101.118 648.632 92.8242 638.5 81.9183 638.5C26.8756 638.5 41.0001 643 21.8301 640C2.66018 637 11.6684 608.732 11.0001 588C10.52 573.105 14.086 564.897 14.5001 550C15.3788 518.389 2.57289 504.808 5.73433 469.5C7.85463 445.82 16.6865 434.623 14.5872 412C13.7981 403.496 10.7111 399.039 10.5872 390.5C10.4098 378.27 10.5914 369.947 17.7099 360C31.5208 340.702 41.1429 351 78.0716 353C115 355 92.2763 335.037 84.9183 321C74.1831 300.521 42.4305 336.971 25.7099 321C15.6718 311.412 15.1198 293.121 12.5004 280C8.01731 257.544 11.5004 221.5 11.5004 221.5L14.5004 204C14.5004 204 20.0291 185.115 28.4401 176.5C47.3049 157.177 97.4637 172.31 97.4637 172.31C97.4637 172.31 93.3126 156.88 95.9183 124C97.4637 104.5 103.623 89.9456 114.5 81.9678C146 59.5 193.683 72.2534 217.5 72C264.5 71.5 316.948 88.5 332.408 64.5Z" fill="url(#paint1_radial_286_17)"/>
</g>
<g filter="url(#filter2_i_286_17)">
<path d="M573.5 406.39L610.477 407.311L609.501 446.513L572.524 445.592L573.5 406.39Z" fill="url(#paint2_radial_286_17)"/>
<path d="M794.772 409.133C781.807 380.885 740.509 400.252 705.411 399.133C691.33 398.683 683.402 398.324 669.337 399.133C644.633 400.553 629 384 606.767 409.133C596.604 420.62 601.086 420.133 608.129 431.133C607.505 436.677 608.129 456.633 608.129 456.633C608.129 456.633 605.275 487.873 604.5 508C603.146 543.168 609.596 562.81 610.129 598C610.351 612.695 601.55 622.491 608.129 635.632C620.035 659.414 648.791 645.008 675.337 646.633C691.407 647.616 700.464 646.633 716.564 646.633C743.412 646.633 762.894 661.405 785.312 646.633C798.013 638.264 805.033 630.661 809.533 616.133C814.473 600.184 805.58 571.304 804.895 542.5C804.478 524.983 800.257 526.765 804.895 497.633C809.533 468.5 797.772 453 797.772 453L801.895 424.633C801.895 424.633 797.701 415.514 794.772 409.133Z" fill="url(#paint3_radial_286_17)"/>
</g>
<g filter="url(#filter3_i_286_17)">
<path d="M390.658 549.321L391.365 497.28L425.058 497.738L424.352 549.779L390.658 549.321Z" fill="url(#paint4_radial_286_17)"/>
<path d="M268.847 650.593C248.3 642.977 241.92 607.787 250 588.74C250 588.74 253.678 573.205 256.5 564.5C258.966 556.893 260.36 553.712 264.093 547.453C289.575 504.733 341.267 538.481 390.943 535.912C405.958 535.135 429.412 534.376 429.412 534.376C429.412 534.376 473.755 523.21 496.303 524.874C523.568 526.886 547.44 514.974 565.5 535.5C573.301 544.366 574.697 558.477 578.399 572.85C580.01 579.106 583 588.74 583 588.74C583 588.74 579.325 622.886 571.729 635.573C564.855 647.052 554.342 648.793 541.5 652.55C522.126 658.22 510.327 649.642 490.291 649.094C456.718 648.177 428.94 653.055 395.359 652.523C366.504 652.067 321.613 647.821 321.613 647.821L286.439 652.55C286.439 652.55 275.329 652.996 268.847 650.593Z" fill="url(#paint5_radial_286_17)"/>
</g>
<mask id="mask0_286_17" style="mask-type:alpha" maskUnits="userSpaceOnUse" x="237" y="123" width="354" height="393">
<rect x="237" y="123" width="354" height="393" fill="#D9D9D9"/>
</mask>
<g mask="url(#mask0_286_17)">
<g filter="url(#filter4_i_286_17)">
<path d="M575.788 336.916C576.806 391.352 589.663 447.615 564.346 476.237C534.559 509.914 472.905 497.978 413.22 499.249C358.412 500.417 302.088 510.435 273.517 485.536C239.369 455.777 251.495 393.97 250.652 336.916C249.83 281.316 235.394 237.255 263.069 208.149C292.691 176.995 354.346 193.959 413.22 194.582C469.891 195.181 528.156 181.255 557.507 210.149C587.412 239.588 574.73 280.371 575.788 336.916ZM280.856 336.916C281.001 384.211 272.79 431.995 299.787 456.536C323.657 478.235 368.558 471.043 413.22 471.085C461.061 471.13 510.096 480.786 534.614 454.627C557.096 430.642 547.583 336.916 547.583 336.916C547.583 336.916 547.583 250.685 530.874 234.234C506.398 208.556 459.384 222.433 413.22 222.746C366.193 223.065 318.041 210.629 293.565 236.307C270.623 260.376 280.735 297.314 280.856 336.916Z" fill="url(#paint6_radial_286_17)"/>
<path d="M295.429 197.909L364.01 187.569C369.721 180.27 390.612 166.33 388.246 160.715C385.88 155.101 381.998 146.677 380.353 143.167L394.901 135.255C398.344 144.61 405.934 162.823 408.746 160.84C412.261 158.361 415.922 131.883 412.425 131.362C409.628 130.945 422.259 131.255 428.925 131.462C426.881 138.616 423.391 153.429 425.779 155.443C428.764 157.961 440.376 139.532 440.4 135.532C440.42 132.332 448.382 138.58 452.858 142.608C449.331 146.92 442.472 156.645 443.245 161.05C444.212 166.556 452.678 172.107 452.624 181.107L453.615 182.613C455.726 189.752 459.733 189.958 458.97 193.585C472.966 192.999 499.737 191.552 502.456 193.91C505.241 196.327 505.541 215.251 504.343 220.41C495.684 219.191 476.253 225.651 475.807 233.249C475.361 240.846 476.286 236.752 476.804 233.755C486.642 232.981 506.816 231.937 508.803 233.949C510.791 235.962 512.227 246.47 512.697 251.473L484.198 251.3C502.547 276.079 531.926 344.982 492.453 372.907C480.596 381.295 477.262 382.691 466.459 386.5C433.044 398.281 403 392.5 376.353 375.907C349.705 359.315 334.986 334.259 330.399 299.866C326.749 272.496 340.184 234.393 343.822 230.446C347.459 226.5 329.959 221 328.913 221.386C327.867 221.772 294.429 217.719 294.429 217.719L292.732 215.909L295.429 197.909Z" fill="url(#paint7_radial_286_17)"/>
<path d="M391 495.999H425V542.999H391V495.999Z" fill="url(#paint8_radial_286_17)"/>
<path d="M208 388.999H256V423.999H208V388.999Z" fill="url(#paint9_radial_286_17)"/>
<path d="M566 406.999H599L597 445.999H566V406.999Z" fill="url(#paint10_radial_286_17)"/>
<path d="M568 275H593V314H568V275Z" fill="url(#paint11_radial_286_17)"/>
</g>
</g>
<mask id="mask1_286_17" style="mask-type:alpha" maskUnits="userSpaceOnUse" x="404" y="-38" width="422" height="427">
<path d="M588.061 -31.8561H825V389H588.061V-31.8561Z" fill="#D9D9D9"/>
<path d="M404 -38H658.227V147.341H404V-38Z" fill="#D9D9D9"/>
</mask>
<g mask="url(#mask1_286_17)">
<g filter="url(#filter5_i_286_17)">
<path d="M484.834 67.5C472.466 48.3 479.398 4.33333 482.834 -5L381 -3.5C381 5.66667 387.646 59.2435 390.742 83C394 108 455.705 115 473.742 115C518.576 112.167 606.527 112.5 606.527 112.5C606.527 112.5 652.841 106.76 667.5 114.763C688.743 126.36 681.664 157.497 678.281 179.5H713.324C713.324 179.5 731.753 185.2 717.324 130C711.949 109.439 712.867 95.2722 700.5 87.0176C671.367 67.5714 591.742 77 591.742 77C591.742 77 500.294 91.5 484.834 67.5Z" fill="url(#paint12_radial_286_17)"/>
<path d="M711.943 145.356C732.887 148.355 784.646 185.992 799 235.856C810.807 276.872 820.079 322.625 787.159 349.79C770.041 363.914 737 371 737 371C737 371 688.962 377.263 663.223 364.033C636.486 350.29 631.094 341.736 613.643 305.146C606.663 290.512 611 299.356 606.5 289.856C602 280.356 607.643 241.717 607.643 241.717C607.643 241.717 617.662 159.784 657.5 145.356C677.491 138.116 691 142.356 711.943 145.356Z" fill="url(#paint13_radial_286_17)"/>
<path d="M576 275H616L622 314H576V275Z" fill="url(#paint14_radial_286_17)"/>
</g>
</g>
<defs>
<filter id="filter0_i_286_17" x="0" y="-41" width="830" height="964" filterUnits="userSpaceOnUse" color-interpolation-filters="sRGB">
<feFlood flood-opacity="0" result="BackgroundImageFix"/>
<feBlend mode="normal" in="SourceGraphic" in2="BackgroundImageFix" result="shape"/>
<feColorMatrix in="SourceAlpha" type="matrix" values="0 0 0 0 0 0 0 0 0 0 0 0 0 0 0 0 0 0 127 0" result="hardAlpha"/>
<feOffset/>
<feGaussianBlur stdDeviation="5.3"/>
<feComposite in2="hardAlpha" operator="arithmetic" k2="-1" k3="1"/>
<feColorMatrix type="matrix" values="0 0 0 0 0 0 0 0 0 0 0 0 0 0 0 0 0 0 0.59 0"/>
<feBlend mode="normal" in2="shape" result="effect1_innerShadow_286_17"/>
</filter>
<filter id="filter1_i_286_17" x="5.2312" y="-11" width="407.188" height="925.331" filterUnits="userSpaceOnUse" color-interpolation-filters="sRGB">
<feFlood flood-opacity="0" result="BackgroundImageFix"/>
<feBlend mode="normal" in="SourceGraphic" in2="BackgroundImageFix" result="shape"/>
<feColorMatrix in="SourceAlpha" type="matrix" values="0 0 0 0 0 0 0 0 0 0 0 0 0 0 0 0 0 0 127 0" result="hardAlpha"/>
<feOffset/>
<feGaussianBlur stdDeviation="3.95"/>
<feComposite in2="hardAlpha" operator="arithmetic" k2="-1" k3="1"/>
<feColorMatrix type="matrix" values="0 0 0 0 0 0 0 0 0 0 0 0 0 0 0 0 0 0 0.59 0"/>
<feBlend mode="normal" in2="shape" result="effect1_innerShadow_286_17"/>
</filter>
<filter id="filter2_i_286_17" x="572.524" y="393.69" width="238.496" height="259.508" filterUnits="userSpaceOnUse" color-interpolation-filters="sRGB">
<feFlood flood-opacity="0" result="BackgroundImageFix"/>
<feBlend mode="normal" in="SourceGraphic" in2="BackgroundImageFix" result="shape"/>
<feColorMatrix in="SourceAlpha" type="matrix" values="0 0 0 0 0 0 0 0 0 0 0 0 0 0 0 0 0 0 127 0" result="hardAlpha"/>
<feOffset/>
<feGaussianBlur stdDeviation="5.3"/>
<feComposite in2="hardAlpha" operator="arithmetic" k2="-1" k3="1"/>
<feColorMatrix type="matrix" values="0 0 0 0 0 0 0 0 0 0 0 0 0 0 0 0 0 0 0.59 0"/>
<feBlend mode="normal" in2="shape" result="effect1_innerShadow_286_17"/>
</filter>
<filter id="filter3_i_286_17" x="246.607" y="497.28" width="336.393" height="157.199" filterUnits="userSpaceOnUse" color-interpolation-filters="sRGB">
<feFlood flood-opacity="0" result="BackgroundImageFix"/>
<feBlend mode="normal" in="SourceGraphic" in2="BackgroundImageFix" result="shape"/>
<feColorMatrix in="SourceAlpha" type="matrix" values="0 0 0 0 0 0 0 0 0 0 0 0 0 0 0 0 0 0 127 0" result="hardAlpha"/>
<feOffset/>
<feGaussianBlur stdDeviation="5.3"/>
<feComposite in2="hardAlpha" operator="arithmetic" k2="-1" k3="1"/>
<feColorMatrix type="matrix" values="0 0 0 0 0 0 0 0 0 0 0 0 0 0 0 0 0 0 0.59 0"/>
<feBlend mode="normal" in2="shape" result="effect1_innerShadow_286_17"/>
</filter>
<filter id="filter4_i_286_17" x="208" y="131.155" width="391" height="411.844" filterUnits="userSpaceOnUse" color-interpolation-filters="sRGB">
<feFlood flood-opacity="0" result="BackgroundImageFix"/>
<feBlend mode="normal" in="SourceGraphic" in2="BackgroundImageFix" result="shape"/>
<feColorMatrix in="SourceAlpha" type="matrix" values="0 0 0 0 0 0 0 0 0 0 0 0 0 0 0 0 0 0 127 0" result="hardAlpha"/>
<feOffset/>
<feGaussianBlur stdDeviation="5.3"/>
<feComposite in2="hardAlpha" operator="arithmetic" k2="-1" k3="1"/>
<feColorMatrix type="matrix" values="0 0 0 0 0 0 0 0 0 0 0 0 0 0 0 0 0 0 0.59 0"/>
<feBlend mode="normal" in2="shape" result="effect1_innerShadow_286_17"/>
</filter>
<filter id="filter5_i_286_17" x="381" y="-5" width="428.866" height="377.481" filterUnits="userSpaceOnUse" color-interpolation-filters="sRGB">
<feFlood flood-opacity="0" result="BackgroundImageFix"/>
<feBlend mode="normal" in="SourceGraphic" in2="BackgroundImageFix" result="shape"/>
<feColorMatrix in="SourceAlpha" type="matrix" values="0 0 0 0 0 0 0 0 0 0 0 0 0 0 0 0 0 0 127 0" result="hardAlpha"/>
<feOffset/>
<feGaussianBlur stdDeviation="5.3"/>
<feComposite in2="hardAlpha" operator="arithmetic" k2="-1" k3="1"/>
<feColorMatrix type="matrix" values="0 0 0 0 0 0 0 0 0 0 0 0 0 0 0 0 0 0 0.59 0"/>
<feBlend mode="normal" in2="shape" result="effect1_innerShadow_286_17"/>
</filter>
<radialGradient id="paint0_radial_286_17" cx="0" cy="0" r="1" gradientUnits="userSpaceOnUse" gradientTransform="translate(108.5 431.5) rotate(111.452) scale(228.317 127.297)">
<stop offset="0.247155" stop-color="#FFE2E2"/>
<stop offset="1" stop-color="#FFACAC"/>
</radialGradient>
<radialGradient id="paint1_radial_286_17" cx="0" cy="0" r="1" gradientUnits="userSpaceOnUse" gradientTransform="translate(108.5 431.5) rotate(111.452) scale(228.317 127.297)">
<stop offset="0.247155" stop-color="#FFE2E2"/>
<stop offset="1" stop-color="#FFACAC"/>
</radialGradient>
<radialGradient id="paint2_radial_286_17" cx="0" cy="0" r="1" gradientUnits="userSpaceOnUse" gradientTransform="translate(674.621 501) rotate(85.8007) scale(116.814 177.867)">
<stop stop-color="#FEF85A"/>
<stop offset="1" stop-color="#E7CC3D"/>
</radialGradient>
<radialGradient id="paint3_radial_286_17" cx="0" cy="0" r="1" gradientUnits="userSpaceOnUse" gradientTransform="translate(674.621 501) rotate(85.8007) scale(116.814 177.867)">
<stop stop-color="#FEF85A"/>
<stop offset="1" stop-color="#E7CC3D"/>
</radialGradient>
<radialGradient id="paint4_radial_286_17" cx="0" cy="0" r="1" gradientUnits="userSpaceOnUse" gradientTransform="translate(398 589.5) rotate(-17.0272) scale(83.6675 75.4995)">
<stop offset="0.309085" stop-color="#FBB584"/>
<stop offset="1" stop-color="#FF8A35"/>
</radialGradient>
<radialGradient id="paint5_radial_286_17" cx="0" cy="0" r="1" gradientUnits="userSpaceOnUse" gradientTransform="translate(398 589.5) rotate(-17.0272) scale(83.6675 75.4995)">
<stop offset="0.309085" stop-color="#FBB584"/>
<stop offset="1" stop-color="#FF8A35"/>
</radialGradient>
<radialGradient id="paint6_radial_286_17" cx="0" cy="0" r="1" gradientUnits="userSpaceOnUse" gradientTransform="translate(409.715 311.372) rotate(157.581) scale(212.637 246.316)">
<stop stop-color="#FA8383"/>
<stop offset="1" stop-color="#E83333"/>
</radialGradient>
<radialGradient id="paint7_radial_286_17" cx="0" cy="0" r="1" gradientUnits="userSpaceOnUse" gradientTransform="translate(409.715 311.372) rotate(157.581) scale(212.637 246.316)">
<stop stop-color="#FA8383"/>
<stop offset="1" stop-color="#E83333"/>
</radialGradient>
<radialGradient id="paint8_radial_286_17" cx="0" cy="0" r="1" gradientUnits="userSpaceOnUse" gradientTransform="translate(409.715 311.372) rotate(157.581) scale(212.637 246.316)">
<stop stop-color="#FA8383"/>
<stop offset="1" stop-color="#E83333"/>
</radialGradient>
<radialGradient id="paint9_radial_286_17" cx="0" cy="0" r="1" gradientUnits="userSpaceOnUse" gradientTransform="translate(409.715 311.372) rotate(157.581) scale(212.637 246.316)">
<stop stop-color="#FA8383"/>
<stop offset="1" stop-color="#E83333"/>
</radialGradient>
<radialGradient id="paint10_radial_286_17" cx="0" cy="0" r="1" gradientUnits="userSpaceOnUse" gradientTransform="translate(409.715 311.372) rotate(157.581) scale(212.637 246.316)">
<stop stop-color="#FA8383"/>
<stop offset="1" stop-color="#E83333"/>
</radialGradient>
<radialGradient id="paint11_radial_286_17" cx="0" cy="0" r="1" gradientUnits="userSpaceOnUse" gradientTransform="translate(409.715 311.372) rotate(157.581) scale(212.637 246.316)">
<stop stop-color="#FA8383"/>
<stop offset="1" stop-color="#E83333"/>
</radialGradient>
<radialGradient id="paint12_radial_286_17" cx="0" cy="0" r="1" gradientUnits="userSpaceOnUse" gradientTransform="translate(700 255) rotate(110.556) scale(98.256 114.142)">
<stop offset="0.339516" stop-color="#8CC9FF"/>
<stop offset="1" stop-color="#48A9FF"/>
</radialGradient>
<radialGradient id="paint13_radial_286_17" cx="0" cy="0" r="1" gradientUnits="userSpaceOnUse" gradientTransform="translate(700 255) rotate(110.556) scale(98.256 114.142)">
<stop offset="0.339516" stop-color="#8CC9FF"/>
<stop offset="1" stop-color="#48A9FF"/>
</radialGradient>
<radialGradient id="paint14_radial_286_17" cx="0" cy="0" r="1" gradientUnits="userSpaceOnUse" gradientTransform="translate(700 255) rotate(110.556) scale(98.256 114.142)">
<stop offset="0.339516" stop-color="#8CC9FF"/>
<stop offset="1" stop-color="#48A9FF"/>
</radialGradient>
</defs>
</svg>
