<svg width="804" height="824" viewBox="0 0 804 824" fill="none" xmlns="http://www.w3.org/2000/svg">
<path d="M84.675 170.597C74.2992 169.053 62.0547 167.671 51.6548 167.451C45.8074 167.327 40.379 167.565 36.1469 168.412C34.0352 168.835 32.0649 169.439 30.4495 170.327C28.8363 171.214 27.3162 172.534 26.6159 174.488C24.4089 180.644 23.6539 187.737 24.9697 193.482C25.6311 196.37 26.8633 199.114 28.9066 201.17C30.3568 202.628 32.1355 203.657 34.1973 204.156C33.3136 205.157 32.205 206.322 30.9217 207.672C30.8016 207.798 30.6801 207.926 30.557 208.055C28.9157 209.781 27.0608 211.744 25.2389 213.849C21.6457 218.001 17.9302 222.982 16.2048 228.189C14.4091 233.609 14.7447 239.454 19.5206 244.551C21.158 246.299 21.9328 247.859 22.2416 249.229C22.55 250.598 22.4426 251.997 21.9712 253.502C20.974 256.685 18.5337 259.882 15.7369 263.467L15.669 263.554C14.3568 265.237 12.9769 267.006 11.8441 268.755C10.6988 270.524 9.66253 272.483 9.21202 274.559C8.74073 276.731 8.918 279.017 10.1671 281.217C11.3668 283.329 13.4 285.089 16.1179 286.616C18.2544 287.816 19.2844 288.933 19.7683 289.808C20.2204 290.625 20.3213 291.452 20.1395 292.409C19.7205 294.614 17.9085 297.108 15.6196 299.812C15.3335 300.15 15.0349 300.497 14.7345 300.846C13.9543 301.754 13.1617 302.676 12.5425 303.485C12.101 304.062 11.6578 304.694 11.3147 305.342C10.9944 305.946 10.6077 306.843 10.6014 307.888C10.5939 309.135 11.1323 310.305 12.1659 311.113C13.0366 311.794 14.0686 312.069 14.9174 312.202C16.6335 312.471 19.0214 312.356 22.0785 311.977C40.2456 309.727 75.5258 310.872 93.253 311.852L97.5235 345.828C83.1835 341.742 63.9821 337.536 48.2991 336.94C39.7078 336.613 31.6629 337.341 26.0638 340.175C23.1898 341.63 20.7991 343.722 19.4348 346.647C18.0696 349.574 17.9043 352.965 18.7912 356.694C20.3204 363.123 21.0403 367.594 21.2365 370.602C21.305 371.651 21.3065 372.479 21.2672 373.122C20.8574 372.727 20.4046 372.227 19.9409 371.64L14.6271 373.988C15.3344 378.277 16.7903 384.841 18.8886 390.645C19.9351 393.54 21.1833 396.364 22.6457 398.649C23.8867 400.587 25.5291 402.531 27.6751 403.524C27.6737 403.554 27.672 403.586 27.6699 403.619C27.6003 404.715 27.1701 406.456 26.3389 408.926C25.432 411.621 24.2307 414.69 22.8759 418.151C21.7168 421.113 20.4453 424.361 19.1496 427.908C16.4214 435.376 13.7616 443.744 12.5574 451.964C11.3566 460.159 11.5569 468.505 14.8574 475.744C17.4801 481.498 17.8072 488.932 16.8527 497.374C15.9906 504.998 14.1374 513.062 12.322 520.961C12.1352 521.774 11.9487 522.585 11.7638 523.394C9.81654 531.911 8.0009 540.3 7.99235 547.129C7.9838 553.949 9.81285 560.396 16.3926 563.252C18.494 564.164 19.0854 564.987 19.257 565.389C19.4105 565.749 19.4915 566.392 18.9553 567.658C18.4112 568.943 17.397 570.466 15.98 572.269C14.9794 573.543 13.8788 574.834 12.7129 576.201C12.2304 576.767 11.7368 577.346 11.2345 577.942C9.5631 579.926 7.84084 582.05 6.42359 584.222C5.0152 586.38 3.79621 588.751 3.27321 591.243C2.73385 593.814 2.94156 596.507 4.37093 599.096C5.76287 601.618 8.16044 603.766 11.4884 605.62C30.1133 616.001 34.17 629.131 34.17 633.5V636.5H37.17H92.9182V844V847H95.9182H137.145H140.145V844V636.088L211.793 625.468L213.278 625.248L213.992 623.928C217.706 617.064 222.204 606.15 223.528 595.676C224.835 585.342 223.139 574.125 212.712 568.826C210.638 567.771 209.381 566.329 208.622 564.529C207.829 562.648 207.518 560.219 207.682 557.185C208.013 551.036 210.206 543.423 212.688 534.901L212.757 534.664C215.168 526.385 217.79 517.379 218.685 508.885C219.589 500.301 218.789 491.74 213.793 484.755C207.316 475.698 205.924 465.611 206.89 456.53C207.763 448.318 210.554 441.078 213.078 436.5H272.482H275.482V433.5V395V392H272.482H216.551C219.368 386.617 221.952 379.838 222.398 373.382C222.694 369.092 222.063 364.686 219.647 360.944C217.192 357.143 213.147 354.417 207.396 353.078C187.595 348.468 155.609 347.146 139.792 347.012L134.363 304H206.715H207.878L208.737 303.217C213.307 299.048 219.09 291.714 221.484 283.117C223.94 274.295 222.778 264.184 213.416 255.321C211.07 253.102 209.862 251.13 209.306 249.42C208.76 247.738 208.779 246.109 209.217 244.435C210.15 240.863 212.868 237.351 216.015 233.369L216.041 233.336C217.528 231.454 219.099 229.465 220.354 227.48C221.611 225.491 222.71 223.266 223.049 220.876C223.406 218.364 222.897 215.842 221.243 213.463C220.091 211.804 218.438 210.291 216.296 208.878L216.36 208.764L216.265 208.713C218.229 204.524 219.904 199.254 219.779 194.171C219.701 190.986 218.911 187.74 216.903 184.919C214.878 182.076 211.797 179.919 207.594 178.632C199.37 176.112 184.764 174.603 170.169 173.706C157.091 172.902 143.719 172.574 134.3 172.512L139.883 120.594C148.495 119.195 160.551 117.275 171.258 115.654C177.099 114.769 182.527 113.975 186.772 113.403C191.135 112.814 193.981 112.5 194.863 112.5C199.266 112.5 289.685 118.14 334.685 120.984C345.527 122.835 362.013 124.128 376.452 121.941C383.702 120.843 390.658 118.836 396.145 115.406C401.706 111.931 405.837 106.929 407.044 100.016C408.131 93.7963 408.331 84.4693 408.07 74.0389C407.807 63.5435 407.068 51.7076 406.203 40.3595C405.395 29.7685 404.476 19.5726 403.726 11.2596L403.567 9.49796C402.781 0.774879 402.242 -5.38397 402.242 -7.5V-10.0398L399.737 -10.4589L354.903 -17.9589L349.808 -18.8111L351.593 -13.9637C352.314 -12.0044 353.402 -6.38076 354.411 1.6132C355.403 9.46889 356.28 19.2901 356.668 29.4148C357.056 39.5503 356.95 49.9195 355.997 58.8958C355.031 67.9979 353.235 75.2055 350.549 79.3754C347.549 84.0327 340.596 86.5708 329.786 87.1448C319.213 87.7063 306.065 86.34 292.16 84.4037C286.764 83.6524 281.233 82.8116 275.722 81.9737C267.181 80.6754 258.686 79.384 250.81 78.4431C237.883 76.8986 225.951 76.1985 217.411 78.0695C209.908 79.7133 199.861 79.262 188.197 78.5986C187.622 78.5659 187.044 78.5328 186.463 78.4995C175.438 77.8675 163.28 77.1705 151.491 78.2628C139.054 79.415 126.755 82.5755 116.359 90.1011C105.908 97.6663 97.6712 109.432 93.0157 127.241C89.5808 140.381 87.419 150.437 86.209 158.043C85.383 163.235 84.9855 167.374 84.9533 170.62L84.6725 170.575L84.675 170.597ZM37.4152 204.514C37.4147 204.514 37.4026 204.513 37.3807 204.509C37.4048 204.511 37.4158 204.513 37.4152 204.514Z" fill="#FFC5E8" stroke="#AF5785" stroke-width="6"/>
<path d="M521 415.132H586.931C584.114 409.749 581.529 402.97 581.084 396.514C580.788 392.225 581.419 387.818 583.835 384.077C586.29 380.275 590.335 377.55 596.086 376.211C617.065 371.326 651.725 370.132 666.337 370.132H701.966C716.575 365.717 737.992 360.726 755.183 360.072C763.774 359.745 771.819 360.473 777.418 363.307C780.292 364.762 782.683 366.855 784.047 369.779C785.412 372.706 785.578 376.098 784.691 379.827C783.162 386.256 782.442 390.726 782.245 393.734C782.177 394.784 782.175 395.612 782.215 396.254C782.625 395.859 783.077 395.359 783.541 394.772L788.855 397.121C788.148 401.41 786.692 407.973 784.593 413.777C783.547 416.672 782.299 419.497 780.836 421.781C779.595 423.72 777.953 425.664 775.807 426.657C775.808 426.687 775.81 426.718 775.812 426.752C775.882 427.848 776.312 429.589 777.143 432.058C778.05 434.753 779.251 437.822 780.606 441.284C781.765 444.245 783.037 447.494 784.332 451.041C787.061 458.509 789.72 466.877 790.925 475.096C792.125 483.291 791.925 491.637 788.625 498.877C786.002 504.63 785.675 512.064 786.629 520.506C787.491 528.13 789.345 536.194 791.16 544.093C791.347 544.906 791.533 545.717 791.718 546.526C793.665 555.043 795.481 563.432 795.49 570.262C795.498 577.081 793.669 583.528 787.089 586.384C784.988 587.297 784.397 588.119 784.225 588.522C784.071 588.882 783.99 589.524 784.527 590.791C785.071 592.076 786.085 593.599 787.502 595.402C788.503 596.675 789.603 597.966 790.769 599.334C791.251 599.899 791.745 600.478 792.247 601.074C793.919 603.058 795.641 605.182 797.058 607.354C798.467 609.513 799.686 611.883 800.209 614.376C800.748 616.947 800.54 619.639 799.111 622.229C797.719 624.75 795.321 626.898 791.994 628.753C773.369 639.134 769.312 652.263 769.312 656.632V659.632H766.312H707.564H666.337H666.116L665.897 659.6L591.689 648.6L590.204 648.38L589.49 647.06C585.776 640.196 581.278 629.283 579.954 618.809C578.647 608.475 580.343 597.257 590.769 591.958C592.844 590.904 594.101 589.461 594.86 587.661C595.653 585.78 595.964 583.352 595.8 580.317C595.469 574.168 593.276 566.555 590.794 558.034L590.725 557.796C588.314 549.517 585.692 540.511 584.797 532.017C583.893 523.433 584.693 514.873 589.689 507.887C596.166 498.83 597.558 488.744 596.592 479.662C595.719 471.45 592.928 464.211 590.404 459.632H521H518V456.632V418.132V415.132H521ZM780.993 397.18C780.993 397.181 780.995 397.18 781 397.178C780.995 397.179 780.993 397.18 780.993 397.18Z" fill="#DFBD53" stroke="#A28F38" stroke-width="6"/>
<path d="M287.098 650.441C287.098 650.441 287.098 650.441 287.098 650.441C287.14 650.378 287.153 650.376 287.098 650.441ZM283.422 653.386C284.19 653.323 284.855 653.286 285.427 653.27L286.875 657.519C291.099 656.898 297.561 655.71 303.242 654.145C306.072 653.365 308.811 652.465 311.011 651.453C312.109 650.947 313.156 650.377 314.038 649.727C314.655 649.271 315.32 648.684 315.841 647.938C315.989 647.927 316.17 647.92 316.385 647.921C317.629 647.922 319.488 648.151 321.976 648.587C324.697 649.065 327.834 649.724 331.355 650.464C334.349 651.093 337.621 651.781 341.149 652.464C348.668 653.921 357.024 655.285 365.165 655.728C373.275 656.168 381.384 655.707 388.319 653.366C394.217 651.374 401.862 650.869 410.395 651.149C418.097 651.402 426.259 652.281 434.187 653.134C435.006 653.222 435.824 653.31 436.638 653.397C445.227 654.314 453.537 655.133 460.22 654.872C463.567 654.741 466.687 654.336 469.318 653.446C471.959 652.553 474.354 651.084 475.843 648.669C476.52 647.573 477.189 647.145 477.796 646.952C478.481 646.734 479.445 646.706 480.832 647.025C483.336 647.602 486.212 649.033 489.651 650.745C490.227 651.032 490.82 651.326 491.429 651.626C495.409 653.586 500.042 655.722 504.634 656.157C509.522 656.621 514.318 655.152 518.221 650.257C527.89 638.131 540.917 634.767 545.849 634.57L548.846 634.45L548.727 631.453L547.217 593.62L546.158 567.071L546.144 566.731L546.054 566.402L533.156 519.052L532.721 517.453L531.136 516.971C524.215 514.862 513.303 512.432 502.971 512.004C497.808 511.79 492.645 512.068 488.144 513.219C484.255 514.213 480.63 515.919 478.006 518.737L424.305 513.638L423.867 502.65L423.747 499.653L420.749 499.772L382.28 501.307L379.282 501.427L379.402 504.424L379.794 514.237C378.35 514.065 376.709 513.943 374.954 513.854C370.955 513.653 365.908 513.611 360.203 513.718C348.786 513.933 334.6 514.746 320.636 516.11C306.69 517.473 292.87 519.394 282.219 521.844C276.909 523.066 272.261 524.446 268.747 526.01C266.991 526.791 265.412 527.664 264.151 528.659C262.915 529.633 261.753 530.905 261.233 532.547C258.989 539.628 257.825 548.825 257.255 557.296C256.682 565.811 256.696 573.812 256.888 578.614L257.788 601.177C253.765 610.808 249.333 624.835 249.117 636.127C249.009 641.84 249.962 647.493 253.279 651.387C256.811 655.532 262.313 656.919 269.419 655.538C275.826 654.293 280.337 653.639 283.422 653.386Z" fill="#F58E42" stroke="#A96130" stroke-width="6"/>
<path d="M716.317 185.321C725.337 183.864 735.899 182.573 744.906 182.364C750.057 182.244 754.878 182.472 758.66 183.302C760.55 183.717 762.339 184.315 763.816 185.205C765.309 186.105 766.662 187.419 767.274 189.291C769.207 195.205 769.864 202.003 768.716 207.499C768.141 210.252 767.065 212.901 765.245 214.908C763.807 216.494 761.974 217.596 759.804 218.034C759.987 218.403 760.207 218.815 760.463 219.272C761.367 220.879 762.606 222.824 764.058 225.09L764.294 225.457C765.668 227.601 767.195 229.982 768.692 232.479C771.833 237.72 774.996 243.721 776.452 249.552C777.913 255.407 777.771 261.645 773.489 266.656C770.948 269.628 770.443 273.593 771.413 278.726C772.366 283.765 774.616 289.294 776.961 295.056L777.154 295.532C779.486 301.265 781.932 307.334 782.584 312.686C782.916 315.414 782.817 318.175 781.862 320.733C780.883 323.355 779.084 325.55 776.401 327.202C774.582 328.323 773.705 329.363 773.287 330.191C772.886 330.985 772.79 331.812 772.955 332.768C773.327 334.913 774.922 337.312 776.919 339.898C777.169 340.221 777.43 340.554 777.693 340.889C778.379 341.764 779.079 342.657 779.625 343.439C780.015 343.998 780.406 344.609 780.708 345.234C780.993 345.823 781.321 346.669 781.327 347.64C781.333 348.77 780.893 349.91 779.917 350.746C779.078 351.465 778.076 351.757 777.271 351.895C775.669 352.17 773.494 352.047 770.805 351.682C754.934 349.527 724.055 350.62 708.479 351.562L704.46 368.848L703.921 371.169H701.538H669.87H666.211L666.928 367.581L671.639 344.009H608.795H607.552L606.674 343.131C604.32 340.778 602.014 336.43 600.089 331.4C598.119 326.251 596.399 319.99 595.402 313.478C594.406 306.977 594.112 300.113 595.073 293.795C596.033 287.491 598.279 281.507 602.563 277.062C604.597 274.95 605.658 273.064 606.149 271.404C606.636 269.76 606.618 268.162 606.228 266.529C605.402 263.075 603.012 259.697 600.255 255.871L600.239 255.848C598.931 254.033 597.545 252.11 596.44 250.19C595.332 248.266 594.376 246.13 594.085 243.852C593.782 241.477 594.221 239.075 595.686 236.776C596.725 235.145 598.224 233.653 600.168 232.261L600.118 232.153L600.219 232.094C598.378 226.998 596.863 219.707 596.958 212.841C597.067 205.005 599.367 196 607.84 193.154C615.138 190.702 628.033 189.248 640.838 188.385C652.162 187.622 663.734 187.304 671.991 187.237L667.106 137.437C659.566 136.095 649.116 134.272 639.825 132.729C634.699 131.878 629.937 131.114 626.216 130.564C622.365 129.995 619.92 129.702 619.2 129.702C618.353 129.702 613.988 129.394 607.347 128.926C605.1 128.768 602.591 128.591 599.87 128.402C588.977 127.644 574.424 126.662 558.768 125.765C527.474 123.972 492.02 122.536 472.527 123.864C462.968 125.649 448.44 126.898 435.688 124.78C423.077 122.686 410.7 116.971 408.561 103.55C406.715 91.9642 405.583 67.7448 404.906 45.53C404.227 23.2329 404 2.66552 404 -1.78169V-4.28154L406.459 -4.73248L445.818 -11.9508L450.822 -12.8686L449.203 -8.04512C448.957 -7.31387 448.677 -5.62656 448.466 -2.89773C448.264 -0.267093 448.143 3.07766 448.115 6.94277C448.059 14.6684 448.376 24.357 449.124 34.3511C449.873 44.3499 451.05 54.5988 452.701 63.4601C454.372 72.4251 456.468 79.6168 458.898 83.7525C460.147 85.8771 462.567 87.8184 466.38 89.4788C470.169 91.1285 475.058 92.38 480.832 93.294C492.38 95.1219 506.934 95.5225 522.125 95.408C530.644 95.3437 539.159 95.1229 547.421 94.9087C554.02 94.7376 560.458 94.5707 566.608 94.4911C580.147 94.3158 592.101 94.5678 599.543 96.3553C606.027 97.9127 614.748 97.4897 625.015 96.8496C625.523 96.8179 626.035 96.7857 626.55 96.7534C636.217 96.1456 646.936 95.4719 657.336 96.5283C668.33 97.645 679.231 100.713 688.438 108.021C697.676 115.352 704.901 126.705 708.98 143.811C711.995 156.456 713.892 166.13 714.953 173.444C715.664 178.34 716.012 182.256 716.052 185.341L716.32 185.294L716.317 185.321ZM757.6 218.248C757.6 218.248 757.606 218.248 757.617 218.247C757.605 218.247 757.6 218.247 757.6 218.248Z" fill="#89C6FC" stroke="#4E97DC" stroke-width="6"/>
<mask id="path-5-outside-1_205_85" maskUnits="userSpaceOnUse" x="228" y="142" width="358" height="358" fill="black">
<rect fill="white" x="228" y="142" width="358" height="358"/>
<path d="M580 321C580 416.545 502.545 494 407 494C311.455 494 234 416.545 234 321C234 225.455 311.455 148 407 148C502.545 148 580 225.455 580 321ZM254.97 321C254.97 404.964 323.036 473.03 407 473.03C490.964 473.03 559.03 404.964 559.03 321C559.03 237.036 490.964 168.97 407 168.97C323.036 168.97 254.97 237.036 254.97 321Z"/>
</mask>
<path d="M580 321C580 416.545 502.545 494 407 494C311.455 494 234 416.545 234 321C234 225.455 311.455 148 407 148C502.545 148 580 225.455 580 321ZM254.97 321C254.97 404.964 323.036 473.03 407 473.03C490.964 473.03 559.03 404.964 559.03 321C559.03 237.036 490.964 168.97 407 168.97C323.036 168.97 254.97 237.036 254.97 321Z" fill="#FF9391"/>
<path d="M580 321C580 416.545 502.545 494 407 494C311.455 494 234 416.545 234 321C234 225.455 311.455 148 407 148C502.545 148 580 225.455 580 321ZM254.97 321C254.97 404.964 323.036 473.03 407 473.03C490.964 473.03 559.03 404.964 559.03 321C559.03 237.036 490.964 168.97 407 168.97C323.036 168.97 254.97 237.036 254.97 321Z" stroke="#C33C3A" stroke-width="12" mask="url(#path-5-outside-1_205_85)"/>
</svg>
